<?xml version="1.0" encoding="UTF-8" standalone="no"?>
<svg
   version="1.1"
   width="896"
   height="896"
   id="svg578"
   sodipodi:docname="Alcedo_appicon.svg"
   xml:space="preserve"
   inkscape:version="1.4 (86a8ad7, 2024-10-11)"
   xmlns:inkscape="http://www.inkscape.org/namespaces/inkscape"
   xmlns:sodipodi="http://sodipodi.sourceforge.net/DTD/sodipodi-0.dtd"
   xmlns="http://www.w3.org/2000/svg"
   xmlns:svg="http://www.w3.org/2000/svg"><defs
     id="defs578" /><sodipodi:namedview
     id="namedview578"
     pagecolor="#ffffff"
     bordercolor="#000000"
     borderopacity="0.25"
     inkscape:showpageshadow="2"
     inkscape:pageopacity="0.0"
     inkscape:pagecheckerboard="0"
     inkscape:deskcolor="#d1d1d1"
     inkscape:zoom="0.90066964"
     inkscape:cx="447.44486"
     inkscape:cy="448"
     inkscape:window-width="1920"
     inkscape:window-height="1129"
     inkscape:window-x="1912"
     inkscape:window-y="-8"
     inkscape:window-maximized="1"
     inkscape:current-layer="svg578" /><g
     id="g10947"><path
       style="fill:#cb3931"
       d="m 203.8125,836.31689 1.3125,-0.52522 0.60417,0.60416 0.60416,0.60417 -1.91666,-0.0789 -1.91667,-0.0789 z m 484,0 1.3125,-0.52522 0.60417,0.60416 0.60416,0.60417 -1.91666,-0.0789 -1.91667,-0.0789 z m -494.54347,-1.00988 1.76903,-0.46099 1.23097,0.49804 1.23097,0.49805 -3,-0.0371 -3,-0.0371 z m 503.48097,0.0307 1.25,-0.50439 1.25,0.50439 1.25,0.50439 H 698 695.5 Z M 332.25098,612.79826 331.17697,611.5 l -0.33848,-3 -0.33849,-3 -2.69282,-0.31091 -2.69283,-0.3109 -1.58285,3.0609 L 321.94864,611 H 319.47432 317 v -2.36916 -2.36916 l -3.75,-0.61983 -3.75,-0.61984 -2.75,-0.011 L 304,605 v -2.3 -2.3 l 1.2,-1.2 1.2,-1.2 h 3.71821 3.71822 l 1.58178,-0.60699 L 317,596.78602 v -3.10544 -3.10545 l -2.63499,-2.10107 -2.635,-2.10107 1.17018,-2.1865 L 314.07037,582 h 1.51584 1.51584 l 1.4624,-3.5 1.46239,-3.5 h 2.51796 2.51797 l 0.54077,1.75 0.54076,1.75 0.78503,1.5 0.78504,1.5 1.71722,0.33765 1.71722,0.33766 1.92559,-1.74264 1.9256,-1.74265 v -2.15388 -2.15388 l 1.44143,-1.94113 1.44143,-1.94113 1.80857,1.10184 1.80857,1.10185 0.3075,4.14815 L 342.115,581 h 3.82005 3.82006 l 1.03396,-1.25 1.03396,-1.25 0.33848,-3 0.33849,-3 2.30504,-0.32676 2.30504,-0.32677 1.44496,1.19921 1.44496,1.19921 v 2.32085 2.32085 l 1.81121,1.30671 1.8112,1.3067 0.77499,1.29398 0.77499,1.29397 -1.60925,2.45603 L 361.95389,589 h -1.36344 -1.36345 l -0.44902,3.05937 -0.44902,3.05938 2.83552,1.46631 2.83552,1.4663 v 1.85188 1.85187 l -1.25,1.01484 -1.25,1.01483 -1.98852,0.3691 -1.98851,0.36909 -0.34585,1.98851 -0.34584,1.98852 -1.60677,1.25 -1.60677,1.25 H 351.78387 349.95 l -0.6,-3 -0.6,-3 h -4.28011 -4.2801 l -1.3449,4.25 -1.34489,4.25 -2.08751,0.29826 -2.0875,0.29825 z m 17.2487,-16.0055 0.25186,-0.29276 0.65818,-2.14463 0.65817,-2.14463 -1.65967,-1.65966 -1.65966,-1.65966 -2.59274,0.30429 -2.59273,0.30429 -1.48318,2.65458 -1.48318,2.65459 1.40525,1.69321 1.40524,1.69322 3.42029,-0.55504 3.4203,-0.55503 z m -18.53955,-1.24472 1.20502,-1.45196 -0.33257,-1.69086 -0.33258,-1.69085 -1.80857,-1.10719 -1.80857,-1.10718 -1.44143,1.94113 L 325,592.38226 V 594.69113 597 h 2.37756 2.37755 z m 223.43931,16.28925 -0.71859,-1.16271 -0.62599,-3.08729 -0.626,-3.08729 -2.62859,-0.30814 -2.62859,-0.30814 -0.62391,1.96576 -0.6239,1.96576 -1.54788,0.59397 -1.54787,0.59398 -1.25991,-0.7516 -1.2599,-0.75159 -4.24258,-3.67161 -4.24257,-3.67161 0.33995,-1.76522 0.33995,-1.76522 3.1402,-0.8137 3.14019,-0.81371 0.64867,-2.58451 0.64867,-2.5845 -0.57623,-1.81555 -0.57623,-1.81554 -2.46416,-0.61847 L 534,584.9619 v -1.95527 -1.95527 l 3,-1.55136 3,-1.55136 v -2.90693 -2.90693 l 1.85912,-0.59007 1.85913,-0.59006 1.61367,0.61923 1.61368,0.61922 0.64868,3.45775 0.64867,3.45775 3.12034,-0.3043 3.12033,-0.3043 0.29713,-2 0.29712,-2 0.49594,-2.31306 0.49595,-2.31305 2.71512,0.31305 2.71512,0.31306 1.07861,4.5 1.07861,4.5 2.73186,0.32226 2.73186,0.32226 1.43953,-1.19471 1.43953,-1.1947 v -5.8585 -5.85851 l 2.44316,-0.61319 2.44317,-0.6132 1.05683,0.65316 1.05684,0.65316 0.0136,4.19099 0.0137,4.19098 0.58804,2.19288 0.58804,2.19288 2.82921,0.6214 2.8292,0.6214 1.18098,1.42298 1.18097,1.42299 -0.5443,1.41844 -0.54431,1.41844 -3.31757,0.71993 -3.31757,0.71992 -0.73469,1.12437 -0.73468,1.12437 -0.0153,3.25 L 579,596 l 1.75,0.1343 1.75,0.13429 4.2854,-0.22736 4.2854,-0.22736 1.4646,1.21551 1.4646,1.21551 v 2.3585 2.35851 l -2.25,0.50533 -2.25,0.50533 -4.41522,0.26372 -4.41522,0.26372 -1.11129,4 -1.11129,4 -2.68861,0.31306 -2.68861,0.31305 -0.49595,-2.31305 -0.49594,-2.31306 -0.2983,-2 -0.2983,-2 -5.24064,-0.30226 L 561,603.89548 v 2.618 2.618 l -1.03518,1.93426 L 558.92963,613 h -1.9058 -1.9058 z M 570.8,594.8 572,593.6 v -3.25469 -3.25468 l -3.51096,-0.65866 -3.51096,-0.65866 -1.48904,1.23579 L 562,588.24489 v 1.31246 1.31245 l 0.97525,2.5651 0.97525,2.5651 h 2.82475 2.82475 z m -17.26115,-2.97691 0.69777,-3.1769 -1.82787,-1.33657 -1.82788,-1.33658 -0.96899,0.323 -0.96899,0.323 -0.9687,1.5357 -0.9687,1.53571 0.66631,2.65477 0.6663,2.65478 h 2.4015 2.40149 z M 60.40479,585.5 l 0.0023,-16 0.337664,8.29748 0.337664,8.29748 -0.339965,7.70252 L 60.402488,601.5 Z M 60.157895,566 v -2.5 l 0.504386,1.25 0.504386,1.25 -0.504386,1.25 -0.504386,1.25 z m 0.202601,-12 v -9.5 l 0.374543,4.75 0.374543,4.75 -0.374543,4.75 -0.374543,4.75 z m 296.983574,7.75 -0.77396,-1.25 -0.53505,-3.96007 -0.53506,-3.96007 -3.5,-0.75143 -3.5,-0.75143 -1.75,2.07228 -1.75,2.07229 v 1.85403 1.85403 l -1.93426,1.03519 L 341.13148,561 h -0.49431 -0.49431 L 338.57143,559.42857 337,557.85714 v -2.4796 -2.47959 l -3.5,-1.4624 -3.5,-1.46239 V 548.18658 546.4 l 1.2,-1.2 1.2,-1.2 h 2.23261 2.23261 l 0.63194,-1.99105 0.63194,-1.99105 -0.55065,-0.89097 -0.55065,-0.89096 -6.43418,-0.68904 -6.43418,-0.68904 -0.64091,-1.67019 -0.64091,-1.67019 2.13573,-1.72941 2.13573,-1.72941 4.57455,0.62702 4.57454,0.62701 1.35091,-1.84749 L 339,527.61774 v -2.23744 -2.23744 l 1.57143,-1.57143 1.57143,-1.57143 0.67857,0.0153 0.67857,0.0153 1.39049,0.88053 1.39049,0.88053 0.62181,3.85415 0.62182,3.85416 4.60812,0.2995 4.60812,0.2995 0.61592,-2.2995 0.61592,-2.2995 0.0137,-2.21482 0.0136,-2.21481 1.77582,-0.95039 1.77583,-0.9504 1.71992,0.96252 1.71993,0.96252 0.6356,3.97485 0.6356,3.97486 0.88368,0.54614 0.88368,0.54614 4.14717,0.37961 4.14717,0.37961 1.57085,1.57085 1.57085,1.57085 -1.08504,1.73123 -1.08503,1.73124 -5.89802,0.5 -5.89801,0.5 v 2.5 2.5 l 5,0.25137 5,0.25137 3.31095,0.55538 3.31094,0.55537 -0.31094,2.69326 L 381.5,550.5 l -7.45532,0.29795 -7.45532,0.29796 -1.29468,1.07449 L 364,553.24489 v 2.9433 2.94329 l -1.03518,1.93426 L 361.92963,563 h -1.9058 -1.9058 z m -1.52765,-21 0.31642,-2.75 H 351.56642 347 v 2.33333 2.33334 l 0.71426,0.71426 0.71426,0.71425 3.53574,-0.29759 L 355.5,543.5 Z m 184.55006,19.03397 -0.75155,-1.21604 -0.56977,-3.53396 -0.56977,-3.53397 -4.68498,-0.30264 -4.68497,-0.30264 -1.10772,4.11376 -1.10772,4.11375 -2.695,-0.31111 -2.695,-0.31112 -1.1263,-3.48473 -1.1263,-3.48473 -2.3737,-0.56036 -2.3737,-0.56035 V 547.45492 544.5 l 2.25219,-0.31984 2.2522,-0.31984 1.07481,-2.0083 1.07481,-2.0083 -0.54562,-1.42186 L 520.06277,537 H 518.23138 516.4 l -1.2,-1.2 -1.2,-1.2 v -1.78658 -1.78658 l 3.5,-1.46239 3.5,-1.4624 V 525.25103 522.4 l 1.2,-1.2 1.2,-1.2 h 2.1 2.1 l 1.2,1.2 1.2,1.2 v 3.28095 3.28095 l 2.45709,0.61669 2.45708,0.61669 2.79292,-0.92618 2.79291,-0.92618 0.5,-6.12224 0.5,-6.12224 1.13466,-1.13388 1.13467,-1.13389 2.36533,0.33467 2.36534,0.33466 0.5,7 0.5,7 7.20311,0.5 7.2031,0.5 1.14623,1.14934 1.14623,1.14933 -0.64106,2.01982 -0.64107,2.01981 -3.70827,0.59271 -3.70827,0.59271 -3.78659,-0.17527 -3.7866,-0.17526 -1.05718,1.05718 -1.05719,1.05719 0.35708,1.85622 0.35708,1.85622 6.80459,0.11789 6.80459,0.11789 1.01677,1.01677 1.01678,1.01678 -0.33467,2.36533 L 563.5,549.5 l -7.28826,0.5 -7.28827,0.5 -0.94642,1.5 -0.94642,1.5 -0.0153,2.77475 L 547,559.0495 544.4349,560.02475 541.8698,561 h -0.37588 -0.37589 z M 538.81336,540.25 539.12672,537 H 534.06336 529 v 2.93045 2.93045 l 2.25,0.45396 2.25,0.45397 2.5,-0.13442 2.5,-0.13441 z m -478.561177,0.25 0.02018,-4 0.434897,2.26166 0.434897,2.26166 -0.455078,1.73834 -0.455077,1.73834 z m 0.03383,-9 0.01365,-5 0.417917,2.76375 0.417917,2.76375 -0.431567,2.23625 L 60.272364,536.5 Z M 60.157895,515 v -2.5 l 0.504386,1.25 0.504386,1.25 -0.504386,1.25 -0.504386,1.25 z M 373.71258,514.37924 373,513.66667 l -0.0153,-2.58334 -0.0153,-2.58333 -0.83955,-1.32418 -0.83955,-1.32419 -3.32118,0.32419 -3.32118,0.32418 -1.60619,2.91135 -1.60619,2.91134 -1.58184,0.9978 -1.58184,0.9978 -1.63593,-0.62776 L 355,513.06277 v -2.45996 -2.45995 L 353.42857,506.57143 351.85714,505 h -2.80612 -2.80613 l -1.1397,-1.37325 -1.1397,-1.37325 0.62425,-1.62675 0.62424,-1.62675 2.64301,-0.11842 2.64301,-0.11842 0.71531,0.10686 0.71531,0.10685 2.60403,-0.99004 2.60403,-0.99005 -0.31934,-2.12301 -0.31934,-2.12301 -3.5,-1.12538 -3.5,-1.12538 -0.33749,-2.38691 -0.33749,-2.38691 1.33749,-0.84778 1.33749,-0.84777 2.60534,-0.0153 2.60534,-0.0153 0.92649,-3.25 0.92648,-3.25 2.67349,-0.31211 2.67349,-0.31211 0.85253,3.31211 0.85253,3.31211 3.70158,0.31093 3.70157,0.31092 1.95504,-4.56092 L 376.92893,475 h 2.53937 2.53938 l 1.21303,4.53538 1.21302,4.53538 2.53314,0.54814 2.53313,0.54815 1.32014,0.412 1.32013,0.41201 -0.32013,2.17472 -0.32014,2.17473 -4.5,1.07974 -4.5,1.07975 -0.32014,2.25447 -0.32013,2.25447 1.32013,0.41762 1.32014,0.41761 3.75,0.62323 3.75,0.62323 v 2.48607 2.48607 l -1.44195,0.55333 -1.44195,0.55333 -3.20122,0.16528 -3.20122,0.16529 -0.73993,1.5 -0.73992,1.5 -0.88531,3 -0.88531,3 -2.51902,0.29591 -2.51902,0.29591 z m -2.06253,-16.14455 1.15005,-0.73469 0.21843,-1.5 0.21844,-1.5 -0.11849,-1.25 L 373,492 h -2.56574 -2.56574 l -1.93426,1.03518 L 364,494.07037 v 1.88148 1.88148 l 1.25,0.50439 1.25,0.50439 2,0.0636 2,0.0636 z M 435.60699,513.41821 435,511.83643 V 509.41821 507 h -3.55103 -3.55102 l -1.4624,3.5 -1.46239,3.5 H 422.68658 420.4 l -1.2,-1.2 -1.2,-1.2 v -1.65534 -1.65534 l -3.25,-0.93209 -3.25,-0.93208 v -2.92506 -2.92506 l 3.80557,-0.9 3.80557,-0.89999 -0.30557,-2.63752 L 418.5,493.5 414.75,492.57363 411,491.64727 v -2.35736 -2.35736 l 3.5,-2.06505 3.5,-2.06505 v -1.74624 -1.74623 l 2.05854,-1.86295 2.05853,-1.86295 1.64924,1.04031 1.64923,1.04031 0.82082,3.16765 0.82082,3.16765 2.22141,0.11848 2.22141,0.11849 1.5,-0.20206 1.5,-0.20206 0.9643,-0.93072 0.96429,-0.93072 0.0357,-4.1091 0.0357,-4.10909 2,-1.28148 2,-1.28149 2.25,0.87265 2.25,0.87265 v 4.90978 4.90978 l 1.25,1.00938 1.25,1.00938 4,0.62675 4,0.62675 2.98256,-0.83097 2.98256,-0.83096 1.01744,-5.93272 L 463.5,472.5 h 3 3 l 1.04866,5.5 1.04866,5.5 4.21049,0.30794 4.21049,0.30795 0.40733,-1.30795 0.40732,-1.30794 0.61841,-2.81306 0.6184,-2.81305 2.63219,0.31305 2.63218,0.31306 1.16393,3.47557 1.16393,3.47557 3.00629,0.61485 3.0063,0.61486 1.16271,0.71859 1.16271,0.71859 v 1.92193 1.92194 l -2.25,0.48011 -2.25,0.48012 -2,0.30263 -2,0.30263 v 3.46934 3.46934 l 3.53397,0.57443 3.53396,0.57443 1.21604,0.75155 L 499,501.11803 V 503 v 1.88197 l -0.98464,0.60854 -0.98464,0.60854 -4.26536,0.72446 -4.26536,0.72446 -0.34582,2.47601 -0.34582,2.47602 -1.02662,1.25 -1.02663,1.25 h -1.958 -1.958 l -1.57125,-4 -1.57124,-4 h -3.23973 -3.23973 l -1.60048,4 -1.60049,4 h -2.56011 -2.56012 l -1.01377,-2.9081 -1.01377,-2.90811 -2.68421,-0.66981 -2.68421,-0.6698 -1.65084,-1.48734 -1.65083,-1.48733 -4.0688,1.09561 -4.0688,1.09561 -1.06891,3.96964 L 442.92291,515 h -3.35447 -3.35446 z m 24.53573,-13.12024 1.64271,-0.47512 0.61979,-3.09893 0.61978,-3.09892 -1.06346,-1.0625 -1.06345,-1.0625 -7.15874,0.17653 -7.15874,0.17654 -1.31921,1.80412 -1.31921,1.80413 0.29202,1.51934 0.29202,1.51934 4.25675,0.56987 4.25676,0.56987 1.20198,1.20198 1.20199,1.20199 1.52815,-0.63531 1.52814,-0.63531 z M 434.25,499.01365 436,499 v -2.96482 -2.96481 l -1.75,-0.87819 -1.75,-0.87818 -2.5,0.63399 -2.5,0.634 -0.32908,2.28173 -0.32908,2.28173 0.59123,1.54073 0.59123,1.54073 2.23785,-0.5998 2.23785,-0.5998 z m 45.19695,-2.65829 0.66376,-2.64465 -0.9282,-0.9282 -0.92819,-0.92819 -3.36897,0.32284 -3.36897,0.32284 -0.34276,1.80841 -0.34277,1.80842 0.55319,1.44158 0.55319,1.44159 h 3.42298 3.42297 z m 30.79594,15.4373 -1.0821,-1.30385 -0.70907,-2.82517 -0.70908,-2.82517 -1.12132,-0.33571 -1.12132,-0.33571 -2.81306,-0.61841 -2.81305,-0.6184 0.31305,-2.67955 0.31306,-2.67955 3.37926,-0.68571 3.37927,-0.68571 0.86948,-1.34986 0.86948,-1.34986 -0.25706,-1.5 -0.25706,-1.5 -3.80194,-0.31396 -3.80193,-0.31395 0.31025,-2.60744 0.31025,-2.60743 4.5,-1.07861 4.5,-1.07861 0.5,-4.99132 0.5,-4.99132 1.85622,-0.35246 1.85622,-0.35246 1.07391,1.07391 1.07391,1.07391 0.56987,4.26987 0.56987,4.26987 3.75,0.31037 3.75,0.31036 v -4.36924 -4.36923 l 1.30603,-1.7861 1.30603,-1.7861 2.44397,0.34497 2.44397,0.34497 0.31396,4.97461 0.31397,4.97461 0.97515,1.17499 0.97515,1.17498 3.71089,-0.48463 3.71088,-0.48463 2.75,1.06029 2.75,1.06028 v 1.96573 1.96574 l -1.25,0.80462 -1.25,0.80463 -5.81797,0.12237 -5.81798,0.12236 -1.15955,1.15955 -1.15955,1.15955 1.08022,1.72247 1.08021,1.72248 6.79462,0.5 6.79462,0.5 1.08021,1.72248 1.08022,1.72247 -1.27442,1.27753 -1.27442,1.27752 -7.2031,0.5 -7.20311,0.5 -0.34582,2.5 -0.34582,2.5 -1.02662,1.25 -1.02663,1.25 h -2.40894 -2.40894 l -0.38509,-1.25 -0.38509,-1.25 -0.60258,-2.75 L 523.9619,504 H 521 518.0381 l -0.57861,2.75 -0.57861,2.75 -0.79257,1.5 -0.79257,1.5 -1.98537,0.29826 -1.98538,0.29825 z m 14.59177,-17.658 0.33467,-2.36533 -1.01145,-1.01145 -1.01145,-1.01145 -2.57321,0.64584 L 518,491.0381 v 1.78095 1.78095 l 1.23832,1.23832 1.23832,1.23832 2.01168,-0.28832 L 524.5,496.5 Z M 60.402488,496 v -15.5 l 0.34082,7.75 0.340821,7.75 -0.340821,7.75 -0.34082,7.75 z m -0.02842,-26.5 0.0041,-11 0.361909,5.78651 0.361909,5.78652 -0.366011,5.21348 L 60.369965,480.5 Z M 386.2,463.8 385,462.6 v -1.86574 -1.86574 L 383.96482,456.93426 382.92963,455 h -2.49854 -2.49854 l -2.06505,3.5 -2.06505,3.5 h -1.93495 -1.93495 l -2.06505,-3.5 -2.06505,-3.5 h -1.29424 -1.29423 l -0.57561,-1.5 -0.5756,-1.5 0.605,-1.5766 0.605,-1.57661 2.22692,-0.84667 2.22692,-0.84668 0.53997,-2.06483 0.53996,-2.06483 -1.90327,-2.41962 L 365,438.18454 v -1.43728 -1.43728 l 2.03527,-1.8419 2.03526,-1.84189 -0.40386,-1.06309 -0.40387,-1.0631 0.86121,-2.31714 0.86121,-2.31713 2.72556,0.31713 2.72557,0.31714 0.91189,3.19911 0.91189,3.19911 2.96877,0.65206 2.96877,0.65205 1.11847,-1.11847 1.11847,-1.11847 0.26089,-4.2327 0.26089,-4.23269 0.54086,-2.25 0.54085,-2.25 h 2.42425 2.42424 l 1.55671,2.22251 1.5567,2.2225 v 4.7775 V 432 h 6.91821 6.91822 l 1.58178,0.60699 1.58179,0.60699 v 2.87396 2.87396 l -2.25,0.51327 -2.25,0.51327 -6.5,0.25578 -6.5,0.25578 -0.30056,2.5856 -0.30056,2.58559 1.32018,1.09565 1.32018,1.09565 4.37853,0.31876 4.37854,0.31875 1.09673,1.75 1.09673,1.75 -1.13075,1.75 -1.13075,1.75 -4.7644,-0.31588 -4.76441,-0.31588 -0.83442,1.31588 -0.83441,1.31588 -0.0153,2.1933 -0.0153,2.19329 -2.22251,1.55671 -2.2225,1.5567 H 388.47749 387.4 Z M 384.5,444 v -3.5 h -3.5 -3.5 l -0.32908,2.32273 -0.32908,2.32272 0.5722,1.49115 0.57221,1.49114 3.25687,-0.31387 L 384.5,447.5 Z M 508.03518,459.06574 507,457.13148 v -2.54669 -2.54669 l -2.5,-0.62746 -2.5,-0.62746 -2.35001,0.58982 -2.35,0.58981 -0.93182,3.2686 -0.93182,3.26859 -2.85967,0.33008 -2.85967,0.33007 -0.84319,-1.33007 -0.84319,-1.33008 -0.0153,-2.68045 L 488,451.1391 485.75,450.81955 483.5,450.5 l -0.30254,-2.12022 -0.30255,-2.12022 3.62121,-2.13657 3.6212,-2.13656 -0.31866,-2.233 -0.31866,-2.233 -2,-0.29915 -2,-0.29915 -2.22114,-0.47287 -2.22113,-0.47287 -1.02528,-1.91576 -1.02528,-1.91575 0.58499,-1.52445 0.58499,-1.52445 4.41142,-0.66153 L 489,427.77291 v -2.19532 -2.19533 l 1.40275,-1.91837 1.40275,-1.91838 2.84725,0.99737 2.84725,0.99737 0.32074,2.47987 0.32074,2.47988 1.44364,1.12076 1.44364,1.12076 3.23562,-0.65772 3.23562,-0.65772 0.50855,-5.67159 0.50855,-5.67159 1.26897,-1.26897 1.26898,-1.26898 1.72247,1.08049 1.72248,1.0805 0.5056,5.5693 0.50561,5.5693 0.57588,0.57588 0.57588,0.57588 6.33791,0.46693 6.33792,0.46693 0.81529,1.28492 0.81528,1.28492 0.0153,1.28138 0.0153,1.28139 -1.33087,0.5107 -1.33087,0.5107 -6.41913,0.70792 L 515.5,436.5 v 3.49018 3.49018 l 3,0.6415 3,0.64151 4.63922,0.11832 4.63921,0.11831 2.32835,1.88538 2.32835,1.88539 -1.34001,1.61461 -1.34001,1.61462 -6.12755,0.0136 -6.12756,0.0137 -2.25,0.60298 -2.25,0.60297 v 1.66087 1.66086 l -1.5567,2.2225 L 512.88659,461 h -1.90811 -1.90811 z M 505.41821,443.39301 507,442.78602 v -2.7846 -2.7846 l -2.58504,-0.64881 -2.58504,-0.6488 -1.91264,0.60704 -1.91263,0.60705 -0.59647,2.37651 -0.59647,2.37652 0.65316,1.05683 0.65316,1.05684 h 2.8592 2.8592 z M 60.428789,432.5 l 0.0013,-23 0.317191,11.80642 0.317191,11.80642 -0.318468,11.19358 L 60.427512,455.5 Z m 427.809131,-17.75 -1.00697,-1.25 -0.70977,-3.31757 -0.70977,-3.31757 -1.40794,-0.54028 -1.40794,-0.54027 -2.4181,0.6069 -2.41811,0.60691 -0.67152,3.05744 -0.67153,3.05745 -3.15376,-0.3065 -3.15376,-0.30651 -0.50647,-2.95541 -0.50647,-2.95541 -2.49791,-0.58558 -2.4979,-0.58559 -0.31199,-2.15127 -0.31198,-2.15127 3.06198,-1.58342 L 470,397.94864 v -2.91096 -2.91096 L 466.75,391.81336 463.5,391.5 v -2.41863 -2.41863 l 2.87217,-1.59189 2.87216,-1.59189 1.12784,-3.48948 L 471.5,376.5 h 2.39101 2.39102 l 0.78683,1.5 0.78684,1.5 0.54408,1.75865 0.54409,1.75865 2.49845,1.13837 2.49845,1.13837 1.52962,-1.26946 L 487,382.75511 v -5.30613 -5.30612 l 1.57143,-1.57143 L 490.14286,369 h 1.30612 1.30613 l 1.00012,1.25 1.00011,1.25 0.45451,5.74884 0.4545,5.74885 0.62595,0.62595 0.62596,0.62595 6.6151,0.68469 6.61511,0.68469 0.91145,1.44051 0.91145,1.44052 0.0153,0.69098 0.0153,0.69099 -1.25,0.80901 -1.25,0.80902 -7,0.5 -7,0.5 -0.31642,2.75 -0.31642,2.75 1.81642,0.0622 1.81642,0.0622 4.5,0.45402 4.5,0.45402 2.25,0.50284 2.25,0.50284 v 2.42194 2.42193 l -0.9417,0.582 -0.94169,0.582 -6.80831,0.41072 -6.8083,0.41072 -0.75,0.0663 L 495,407 v 2.92857 2.92857 l -1.57143,1.57143 L 491.85714,416 h -1.30612 -1.30613 z M 486,395 v -3 h -3.44098 -3.44099 l -0.51078,0.82646 -0.51077,0.82646 0.56839,2.17354 L 479.23326,398 H 482.61663 486 Z M 403.00049,412.50128 402,409.8698 V 407.9349 406 h -3.35534 -3.35534 l -0.92803,3.25 -0.92804,3.25 -2.23745,0.32228 -2.23745,0.32228 -1.4926,-3.57228 L 385.97316,406 h -1.86414 -1.86413 l -1.31446,-1.58382 -1.31445,-1.58383 1.04919,-1.66617 1.0492,-1.66618 1.89281,-0.34706 1.89282,-0.34707 0.87678,-0.82972 0.87679,-0.82972 -0.62923,-2.50703 -0.62922,-2.50703 -2.74756,-0.31618 L 380.5,391.5 v -1.98653 -1.98652 l 3,-1.41785 3,-1.41785 0.73469,-1.09562 0.73468,-1.09563 0.0153,-2.23095 0.0153,-2.23095 2.51299,-0.63072 2.51298,-0.63071 1.47601,1.22497 1.476,1.22497 -0.55354,0.89565 -0.55354,0.89564 0.63194,1.99105 0.63194,1.99105 h 3.39742 3.39743 l 1.03519,-1.93426 L 405,381.13148 v -2.00672 -2.00673 l 0.91608,-0.56617 0.91609,-0.56617 2.54508,0.96764 2.54509,0.96764 0.84811,3.28952 0.84811,3.28951 5.44072,0.51052 5.44072,0.51052 1.25,0.7985 1.25,0.79849 v 1.834 1.83399 l -1.58179,0.60699 L 423.83643,392 h -4.34679 -4.34678 l -1.52894,1.52894 -1.52894,1.52894 0.5645,1.47106 0.5645,1.47106 4.64301,0.0147 4.64301,0.0147 2.5,1.29075 2.5,1.29074 -0.34995,1.94452 -0.34995,1.94451 -1.15005,0.73469 -1.15005,0.73468 -5.78138,0.0153 -5.78139,0.0153 -0.52347,1.75 -0.52347,1.75 -1.22669,2.5 -1.22669,2.5 -2.71797,0.31638 -2.71797,0.31637 z m -0.0997,-15.75128 0.83638,-2.25 -0.43778,-1.15146 -0.43777,-1.15146 -1.86613,-0.488 -1.86614,-0.48801 -2.06469,1.44617 L 395,394.11341 v 1.24329 1.2433 l 1.2,1.2 1.2,1.2 h 2.33222 2.33223 z m -342.705871,9.75 0.03705,-3 0.460988,1.76903 0.460988,1.76903 -0.498042,1.23097 -0.498042,1.23097 z m 0.05723,-13 0.02018,-4 0.434897,2.26166 0.434897,2.26166 -0.455078,1.73834 L 60.232003,397.5 Z M 60.232003,378 v -3.5 l 0.457323,1.75 0.457322,1.75 -0.457322,1.75 -0.457323,1.75 z m -0.07411,-7 v -2.5 l 0.504386,1.25 0.504386,1.25 -0.504386,1.25 -0.504386,1.25 z m 411.504775,-2.48018 -1.48018,-1.48019 -0.69091,-4.08944 -0.6909,-4.08945 -1.31756,-0.50559 -1.31755,-0.50559 -4.33278,0.85305 -4.33279,0.85305 -0.31336,2.17489 -0.31335,2.17489 -1.79577,0.56996 -1.79577,0.56995 -1.50542,-0.57769 -1.50543,-0.57768 -1.11401,-2.44499 -1.11401,-2.44499 -2.27144,-0.0153 -2.27144,-0.0153 -1.34839,-0.85451 -1.3484,-0.85451 0.3484,-1.88018 L 441.5,353.5 l 3.8059,-1.85906 3.8059,-1.85907 -0.3059,-2.64093 L 448.5,344.5 l -2.5,0.25689 -2.5,0.25689 -1.11522,-0.75689 -1.11522,-0.75689 -0.65736,-2.10882 -0.65736,-2.10881 1.27258,-1.0527 1.27258,-1.0527 3,-0.33848 3,-0.33849 0.34582,-2.5 0.34582,-2.5 1.02662,-1.25 1.02663,-1.25 h 2.25511 2.25511 l 1.01484,1.25 1.01483,1.25 0.37131,2 0.3713,2 h 4.98631 4.9863 l 0.1437,-2 0.1437,-2 0.1063,-3.28222 0.1063,-3.28223 2.25,-0.84961 2.25,-0.84961 1.75,0.91702 1.75,0.91702 v 4.27368 4.27369 l 1.25,1.65777 1.25,1.65776 7,0.28337 7,0.28336 0.33749,2.38691 0.33749,2.38691 -1.33749,0.84778 -1.33749,0.84777 -6.75,0.0153 L 478,344 l -0.11848,1.25 -0.11849,1.25 0.21844,1.5 0.21843,1.5 1.15005,0.75995 1.15005,0.75995 2.06093,-0.48155 2.06093,-0.48155 3.68907,1.01861 3.68907,1.0186 v 2.33055 2.33055 l -1.4646,1.21551 -1.4646,1.21551 -4.2854,-0.22736 -4.2854,-0.22736 -1.25,0.13429 L 478,359 v 3.84501 3.84501 l -1.82874,1.65499 L 474.34252,370 h -0.59983 -0.59983 z M 468.5,347.5 v -3 h -5 -5 l -0.33749,2.38691 -0.33749,2.38691 1.33749,0.874 1.33749,0.874 4,-0.26091 4,-0.26091 z m -50.3,20.3 -1.2,-1.2 v -3.19301 -3.19301 l -1.40355,-0.53859 -1.40355,-0.5386 -2.0537,0.53706 -2.0537,0.53705 -1.13915,3.45167 -1.13916,3.45167 -2.65359,-0.30712 L 402.5,366.5 l -1.5,-3.19036 -1.5,-3.19035 -3,-0.30965 -3,-0.30964 -0.31306,-2.71512 -0.31305,-2.71512 2.81305,-0.59444 2.81306,-0.59444 1.5,-0.79943 1.5,-0.79942 v -1.87732 -1.87732 l -2,-0.3713 -2,-0.37131 -1.25,-1.01483 -1.25,-1.01484 v -1.27878 -1.27878 l 3.31423,-1.95544 3.31424,-1.95545 0.97122,-3.38646 0.97123,-3.38647 1.76258,-0.33944 1.76258,-0.33944 1.45196,1.20502 1.45196,1.20502 v 1.68643 1.68642 l 1.36591,1.86799 1.36591,1.868 3.13409,-1.29819 L 419,337.75736 v -4.40012 -4.40012 l 2.53694,-1.1559 2.53694,-1.15591 1.39014,1.42734 1.39013,1.42735 0.36907,3.98091 0.36907,3.9809 3.62201,1.0191 3.62201,1.01909 0.67315,0.67464 0.67315,0.67464 -0.65834,2.07426 -0.65835,2.07426 -3.93296,0.62891 L 427,346.25562 V 349.12781 352 h 4.34501 4.34501 l 1.77627,1.96275 1.77627,1.96276 -0.58989,1.53724 -0.5899,1.53725 h -4.09713 -4.09712 l -1.93426,1.03518 L 426,361.07037 v 2.38303 2.38303 l -0.60699,1.58178 L 424.78602,369 H 422.09301 419.4 Z m -0.80086,-18.07847 1.10086,-1.77846 -1.5,-0.95622 -1.5,-0.95622 -2.13337,-0.0153 -2.13337,-0.0153 -0.56839,2.17354 -0.56839,2.17354 0.54619,0.88377 0.5462,0.88377 2.5547,-0.30731 2.55471,-0.30731 z M 60.157895,357 v -2.5 l 0.504386,1.25 0.504386,1.25 -0.504386,1.25 -0.504386,1.25 z m 0,-21 v -2.5 l 0.504386,1.25 0.504386,1.25 -0.504386,1.25 -0.504386,1.25 z m 0.216172,-13.5 0.0041,-11 0.361909,5.78651 0.361909,5.78652 -0.366011,5.21348 -0.366011,5.21349 z m 387.878823,-5.69944 -1.07592,-1.30056 -0.33848,-3 -0.33849,-3 h -3.89101 -3.89102 l -0.78683,1.5 -0.78684,1.5 -0.54076,1.75 -0.54077,1.75 h -3.00279 -3.0028 l -0.83507,-3.22264 -0.83507,-3.22264 -4.44352,-0.32275 L 419.5,308.90923 418.25,308.486 417,308.06277 v -1.9962 -1.9962 l 1.93426,-1.03519 1.93426,-1.03518 3.31574,-0.0153 3.31574,-0.0153 1.33008,-0.84319 1.33007,-0.84319 -0.33007,-2.8915 L 429.5,294.5 l -4,-0.26654 -4,-0.26655 -2.25,-0.5025 -2.25,-0.50251 v -2.44577 -2.44576 l 1.93426,-1.03519 L 420.86852,286 h 4.11677 4.11676 l 1.4624,-3.5 1.46239,-3.5 h 1.78658 1.78658 l 1.2,1.2 1.2,1.2 v 2.18337 2.18337 l 1.75,0.4163 1.75,0.4163 2.99163,-0.55804 2.99163,-0.55804 0.51274,-2.99163 0.51275,-2.99163 3.20694,-0.31047 3.20694,-0.31048 1.48766,3.56048 1.48766,3.56047 h 5.98592 5.98593 l 2.5651,0.97525 2.5651,0.97525 v 2.41776 2.41776 l -1.58179,0.60699 L 471.83643,294 h -7.98158 -7.98157 l 0.31336,3.2107 0.31336,3.2107 2.5,0.68962 2.5,0.68962 6.55,0.0997 6.55,0.0997 1.2,1.2 1.2,1.2 v 1.26482 1.26481 l -2.15687,1.15432 -2.15687,1.15432 -7.88531,0.25638 -7.88531,0.25637 -0.28817,0.37449 -0.28817,0.37449 -0.95148,3.5 -0.95147,3.5 -2.55377,0.30056 -2.55377,0.30056 z m -2.29857,-16.24552 1.19921,-1.44496 -0.32677,-2.30504 L 446.5,294.5 l -3.7163,-0.30836 -3.7163,-0.30835 -0.64537,2.57134 -0.64536,2.57134 1.23411,1.48702 L 440.24489,302 H 442.5 444.75511 Z M 60.157895,309 v -2.5 l 0.504386,1.25 0.504386,1.25 -0.504386,1.25 -0.504386,1.25 z m 0,-5 v -2.5 l 0.504386,1.25 0.504386,1.25 -0.504386,1.25 -0.504386,1.25 z m 0.178311,-13 v -7.5 l 0.392262,3.75 0.392263,3.75 -0.392263,3.75 -0.392262,3.75 z m 0.742741,-98.58333 0.07895,-1.91667 0.525219,1.3125 0.525219,1.3125 -0.604166,0.60417 L 61,194.33333 Z M 792.87244,104.25 791.5,102.5 l 1.75,1.37244 1.75,1.37245 V 105.62244 106 h -0.37756 -0.37755 z M 211.8125,62.316886 213.125,61.791667 213.72917,62.395833 214.33333,63 212.41667,62.921053 210.5,62.842105 Z m 380.9375,0.02083 1.25,-0.504386 1.25,0.504386 1.25,0.504386 h -2.5 -2.5 z m 87.0625,-0.02083 1.3125,-0.525219 0.60417,0.604166 L 682.33333,63 680.41667,62.921053 678.5,62.842105 Z"
       id="path10948" /><path
       style="fill:#0e0b0b"
       d="m 205.5,836.47877 -1,-0.37991 -12.52303,-1.02538 -12.52303,-1.02538 -9.55573,-1.96616 -9.55572,-1.96617 -6.42125,-2.18425 -6.42124,-2.18424 -7.43686,-3.39491 -7.43686,-3.3949 -10.06314,-6.66259 L 112.5,805.63229 101.42227,794.56614 90.34455,783.5 85.080141,776 l -5.264408,-7.5 -3.908812,-7.72968 -3.908812,-7.72969 -2.368234,-6.29181 -2.368234,-6.29182 -2.06549,-8.4785 -2.06549,-8.4785 -1.113553,-10 -1.113552,-10 0.350474,-259.5 0.350475,-259.5 1.72158,-8.5 1.72158,-8.5 3.076178,-10 3.076177,-10 4.498576,-8.98763 4.498576,-8.98763 5.644393,-8.01237 5.644394,-8.01237 6.986391,-7.35763 6.98639,-7.357635 9.55021,-7.194074 9.55021,-7.194074 10.97042,-5.569713 10.97042,-5.569714 8,-2.580522 8,-2.580522 7.5,-1.485025 7.5,-1.485026 L 190,63.813033 202.5,62.5 H 447 691.5 l 15.17445,1.758815 15.17445,1.758815 9.82555,2.534831 9.82555,2.534832 9.82832,4.387138 9.82833,4.387138 8.6409,5.319215 8.6409,5.319216 13.07812,13 13.07812,13 5.26308,8 5.26307,8 3.86778,8.03997 3.86778,8.03997 3.04127,10.23732 3.04128,10.23731 1.78052,11.22272 L 832.5,191.5 V 451 710.5 l -1.85858,10.5 -1.85859,10.5 -2.98846,9.5 -2.98847,9.5 -3.86108,7.78214 -3.86108,7.78213 -4.69223,6.99366 -4.69223,6.99366 -6.74412,7.79163 -6.74412,7.79164 -9.35552,7.56586 -9.35552,7.56586 -5.5,3.48149 -5.5,3.48148 -6.33461,3.19233 -6.3346,3.19233 -7.55099,2.90763 -7.55099,2.90762 -10.11441,2.03378 -10.1144,2.03377 -10.5,1.17317 -10.5,1.17316 -243.5,0.25767 -243.5,0.25766 z M 338.84489,609.25 340.18979,605 h 4.2801 4.28011 l 0.6,3 0.6,3 h 1.83387 1.83387 l 1.60677,-1.25 1.60677,-1.25 0.34584,-1.98852 0.34585,-1.98851 1.98851,-0.36909 1.98852,-0.3691 1.25,-1.01483 1.25,-1.01484 v -1.85187 -1.85188 l -2.83552,-1.4663 -2.83552,-1.46631 0.44902,-3.05938 L 359.227,589 h 1.36345 1.36344 l 1.60925,-2.45602 1.60925,-2.45603 -0.77499,-1.29397 -0.77499,-1.29398 -1.8112,-1.3067 L 360,578.88659 v -2.32085 -2.32085 l -1.44496,-1.19921 -1.44496,-1.19921 -2.30504,0.32677 L 352.5,572.5 l -0.33849,3 -0.33848,3 -1.03396,1.25 -1.03396,1.25 h -3.82006 -3.82005 l -0.3075,-4.14816 -0.3075,-4.14815 -1.80857,-1.10185 -1.80857,-1.10184 -1.44143,1.94113 L 335,574.38226 v 2.15388 2.15388 l -1.9256,1.74265 -1.92559,1.74264 -1.71722,-0.33766 -1.71722,-0.33765 -0.78504,-1.5 -0.78503,-1.5 -0.54076,-1.75 -0.54077,-1.75 h -2.51797 -2.51796 l -1.46239,3.5 -1.4624,3.5 h -1.51584 -1.51584 l -1.17018,2.18649 -1.17018,2.1865 2.635,2.10107 2.63499,2.10107 v 3.10545 3.10544 l -1.58179,0.60699 L 313.83643,598 H 310.11821 306.4 l -1.2,1.2 -1.2,1.2 v 2.3 2.3 l 2.75,0.011 2.75,0.011 3.75,0.61984 3.75,0.61983 V 608.63084 611 h 2.47432 2.47432 l 1.58286,-3.06091 1.58285,-3.0609 2.69283,0.3109 2.69282,0.31091 0.33849,3 0.33848,3 1.07401,1.29826 1.07401,1.29825 2.0875,-0.29825 L 337.5,613.5 Z m 2.15709,-12.74762 -1.40525,-1.69321 1.48318,-2.65459 1.48318,-2.65458 2.59273,-0.30429 2.59274,-0.30429 1.65966,1.65966 1.65967,1.65966 -0.65817,2.14463 -0.65818,2.14463 -0.25186,0.29276 -0.25187,0.29277 -3.4203,0.55503 -3.42029,0.55504 z M 325,594.69113 v -2.30887 l 1.44143,-1.94113 1.44143,-1.94113 1.80857,1.10718 1.80857,1.10719 0.33258,1.69085 0.33257,1.69086 -1.20502,1.45196 L 329.75511,597 H 327.37756 325 Z M 559.96482,611.06574 561,609.13148 v -2.618 -2.618 l 5.24063,0.30226 5.24064,0.30226 0.2983,2 0.2983,2 0.49594,2.31306 0.49595,2.31305 2.68861,-0.31305 2.68861,-0.31306 1.11129,-4 1.11129,-4 4.41522,-0.26372 4.41522,-0.26372 2.25,-0.50533 2.25,-0.50533 v -2.35851 -2.3585 l -1.4646,-1.21551 -1.4646,-1.21551 -4.2854,0.22736 -4.2854,0.22736 -1.75,-0.13429 L 579,596 l 0.0153,-3.25 0.0153,-3.25 0.73468,-1.12437 0.73469,-1.12437 3.31757,-0.71992 3.31757,-0.71993 0.54431,-1.41844 0.5443,-1.41844 -1.18097,-1.42299 -1.18098,-1.42298 -2.8292,-0.6214 -2.82921,-0.6214 -0.58804,-2.19288 -0.58804,-2.19288 -0.0137,-4.19098 -0.0136,-4.19099 -1.05684,-0.65316 -1.05683,-0.65316 -2.44317,0.6132 L 572,566.0381 v 5.85851 5.8585 l -1.43953,1.1947 -1.43953,1.19471 -2.73186,-0.32226 -2.73186,-0.32226 -1.07861,-4.5 -1.07861,-4.5 -2.71512,-0.31306 -2.71512,-0.31305 -0.49595,2.31305 -0.49594,2.31306 -0.29712,2 -0.29713,2 -3.12033,0.3043 -3.12034,0.3043 -0.64867,-3.45775 -0.64868,-3.45775 -1.61368,-0.61922 -1.61367,-0.61923 -1.85913,0.59006 L 540,572.13478 v 2.90693 2.90693 l -3,1.55136 -3,1.55136 v 1.95527 1.95527 l 2.46417,0.61846 2.46416,0.61847 0.57623,1.81554 0.57623,1.81555 -0.64867,2.5845 -0.64867,2.58451 -3.14019,0.81371 -3.1402,0.8137 -0.33995,1.76522 -0.33995,1.76522 4.24257,3.67161 4.24258,3.67161 1.2599,0.75159 1.25991,0.7516 1.54787,-0.59398 1.54788,-0.59397 0.6239,-1.96576 0.62391,-1.96576 2.62859,0.30814 2.62859,0.30814 0.626,3.08729 0.62599,3.08729 0.71859,1.16271 0.71859,1.16271 h 1.9058 1.9058 z M 562.97525,593.4349 562,590.8698 v -1.31245 -1.31246 l 1.48904,-1.23579 1.48904,-1.23579 3.51096,0.65866 3.51096,0.65866 v 3.25468 3.25469 l -1.2,1.2 -1.2,1.2 h -2.82475 -2.82475 z m -15.60345,-1.08968 -0.66631,-2.65477 0.9687,-1.53571 0.9687,-1.5357 0.96899,-0.323 0.96899,-0.323 1.82788,1.33658 1.82787,1.33657 -0.69777,3.1769 L 552.84109,595 h -2.40149 -2.4015 z M 362.96482,561.06574 364,559.13148 v -2.94329 -2.9433 l 1.29468,-1.07449 1.29468,-1.07449 7.45532,-0.29796 L 381.5,550.5 l 0.31095,-2.69325 0.31094,-2.69326 -3.31094,-0.55537 -3.31095,-0.55538 -5,-0.25137 -5,-0.25137 v -2.5 -2.5 l 5.89801,-0.5 5.89802,-0.5 1.08503,-1.73124 1.08504,-1.73123 -1.57085,-1.57085 -1.57085,-1.57085 -4.14717,-0.37961 -4.14717,-0.37961 -0.88368,-0.54614 -0.88368,-0.54614 -0.6356,-3.97486 -0.6356,-3.97485 -1.71993,-0.96252 -1.71992,-0.96252 -1.77583,0.9504 -1.77582,0.95039 -0.0136,2.21481 -0.0137,2.21482 -0.61592,2.2995 -0.61592,2.2995 -4.60812,-0.2995 -4.60812,-0.2995 -0.62182,-3.85416 -0.62181,-3.85415 -1.39049,-0.88053 -1.39049,-0.88053 -0.67857,-0.0153 L 342.14286,520 340.57143,521.57143 339,523.14286 v 2.23744 2.23744 l -1.35092,1.84749 -1.35091,1.84749 -4.57454,-0.62701 -4.57455,-0.62702 -2.13573,1.72941 -2.13573,1.72941 0.64091,1.67019 0.64091,1.67019 6.43418,0.68904 6.43418,0.68904 0.55065,0.89096 0.55065,0.89097 -0.63194,1.99105 L 336.86522,544 H 334.63261 332.4 l -1.2,1.2 -1.2,1.2 v 1.78658 1.78658 l 3.5,1.46239 3.5,1.4624 v 2.47959 2.4796 l 1.57143,1.57143 1.57143,1.57143 h 0.49431 0.49431 l 1.93426,-1.03518 L 345,558.92963 v -1.85403 -1.85403 l 1.75,-2.07229 1.75,-2.07228 3.5,0.75143 3.5,0.75143 0.53506,3.96007 0.53505,3.96007 0.77396,1.25 0.77396,1.25 h 1.9058 1.9058 z M 347.71426,543.38093 347,542.66667 V 540.33333 538 h 4.56642 4.56642 l -0.31642,2.75 -0.31642,2.75 -3.53574,0.29759 -3.53574,0.29759 z M 544.4349,560.02475 547,559.0495 l 0.0153,-2.77475 0.0153,-2.77475 0.94642,-1.5 0.94642,-1.5 7.28827,-0.5 7.28826,-0.5 0.33466,-2.36534 0.33467,-2.36533 -1.01678,-1.01678 -1.01677,-1.01677 -6.80459,-0.11789 -6.80459,-0.11789 -0.35708,-1.85622 -0.35708,-1.85622 1.05719,-1.05719 1.05718,-1.05718 3.7866,0.17526 3.78659,0.17527 3.70827,-0.59271 3.70827,-0.59271 0.64107,-2.01981 0.64106,-2.01982 -1.14623,-1.14933 -1.14623,-1.14934 -7.2031,-0.5 -7.20311,-0.5 -0.5,-7 -0.5,-7 -2.36534,-0.33466 -2.36533,-0.33467 -1.13467,1.13389 -1.13466,1.13388 -0.5,6.12224 -0.5,6.12224 -2.79291,0.92618 -2.79292,0.92618 -2.45708,-0.61669 L 530,528.9619 V 525.68095 522.4 l -1.2,-1.2 -1.2,-1.2 h -2.1 -2.1 l -1.2,1.2 -1.2,1.2 v 2.85103 2.85102 l -3.5,1.4624 -3.5,1.46239 v 1.78658 1.78658 l 1.2,1.2 1.2,1.2 h 1.83138 1.83139 l 0.54562,1.42186 0.54562,1.42186 -1.07481,2.0083 -1.07481,2.0083 -2.2522,0.31984 L 514.5,544.5 v 2.95492 2.95491 l 2.3737,0.56035 2.3737,0.56036 1.1263,3.48473 1.1263,3.48473 2.695,0.31112 2.695,0.31111 1.10772,-4.11375 1.10772,-4.11376 4.68497,0.30264 4.68498,0.30264 0.56977,3.53397 0.56977,3.53396 0.75155,1.21604 0.75155,1.21603 h 0.37589 0.37588 z M 531.25,543.31486 529,542.8609 V 539.93045 537 h 5.06336 5.06336 l -0.31336,3.25 -0.31336,3.25 -2.5,0.13441 -2.5,0.13442 z M 380.3485,511.5 l 0.88531,-3 0.73992,-1.5 0.73993,-1.5 3.20122,-0.16529 3.20122,-0.16528 1.44195,-0.55333 L 392,504.06277 v -2.48607 -2.48607 l -3.75,-0.62323 -3.75,-0.62323 -1.32014,-0.41761 -1.32013,-0.41762 0.32013,-2.25447 L 382.5,492.5 l 4.5,-1.07975 4.5,-1.07974 0.32014,-2.17473 0.32013,-2.17472 -1.32013,-0.41201 -1.32014,-0.412 -2.53313,-0.54815 -2.53314,-0.54814 -1.21302,-4.53538 L 382.00768,475 h -2.53938 -2.53937 l -1.95505,4.56093 -1.95504,4.56092 -3.70157,-0.31092 -3.70158,-0.31093 -0.85253,-3.31211 -0.85253,-3.31211 -2.67349,0.31211 -2.67349,0.31211 -0.92648,3.25 -0.92649,3.25 -2.60534,0.0153 -2.60534,0.0153 -1.33749,0.84777 -1.33749,0.84778 0.33749,2.38691 0.33749,2.38691 3.5,1.12538 3.5,1.12538 0.31934,2.12301 0.31934,2.12301 -2.60403,0.99005 -2.60403,0.99004 -0.71531,-0.10685 -0.71531,-0.10686 -2.64301,0.11842 -2.64301,0.11842 -0.62424,1.62675 -0.62425,1.62675 1.1397,1.37325 1.1397,1.37325 h 2.80613 2.80612 l 1.57143,1.57143 1.57143,1.57143 v 2.45995 2.45996 l 1.63592,0.62776 1.63593,0.62776 1.58184,-0.9978 1.58184,-0.9978 1.60619,-2.91134 1.60619,-2.91135 3.32118,-0.32418 3.32118,-0.32419 0.83955,1.32419 0.83955,1.32418 0.0153,2.58333 0.0153,2.58334 0.71258,0.71257 0.71257,0.71258 2.51902,-0.29591 2.51902,-0.29591 z M 365.25,498.33772 364,497.83333 v -1.88148 -1.88148 l 1.93426,-1.03519 L 367.86852,492 H 370.43426 373 l 0.11848,1.25 0.11849,1.25 -0.21844,1.5 -0.21843,1.5 -1.15005,0.73469 -1.15005,0.73468 -2,-0.0636 -2,-0.0636 z m 78.74182,12.69265 1.06891,-3.96964 4.0688,-1.09561 4.0688,-1.09561 1.65083,1.48733 1.65084,1.48734 2.68421,0.6698 2.68421,0.66981 1.01377,2.90811 1.01377,2.9081 h 2.56012 2.56011 l 1.60049,-4 1.60048,-4 h 3.23973 3.23973 l 1.57124,4 1.57125,4 h 1.958 1.958 l 1.02663,-1.25 1.02662,-1.25 0.34582,-2.47602 0.34582,-2.47601 4.26536,-0.72446 4.26536,-0.72446 0.98464,-0.60854 L 499,504.88197 V 503 501.11803 l -1.21603,-0.75155 -1.21604,-0.75155 -3.53396,-0.57443 -3.53397,-0.57443 v -3.46934 -3.46934 l 2,-0.30263 2,-0.30263 2.25,-0.48012 2.25,-0.48011 v -1.92194 -1.92193 l -1.16271,-0.71859 -1.16271,-0.71859 -3.0063,-0.61486 -3.00629,-0.61485 -1.16393,-3.47557 -1.16393,-3.47557 -2.63218,-0.31306 -2.63219,-0.31305 -0.6184,2.81305 -0.61841,2.81306 -0.40732,1.30794 -0.40733,1.30795 -4.21049,-0.30795 L 471.59732,483.5 470.54866,478 469.5,472.5 h -3 -3 l -1.01744,5.93272 -1.01744,5.93272 -2.98256,0.83096 -2.98256,0.83097 -4,-0.62675 -4,-0.62675 -1.25,-1.00938 -1.25,-1.00938 v -4.90978 -4.90978 l -2.25,-0.87265 -2.25,-0.87265 -2,1.28149 -2,1.28148 -0.0357,4.10909 -0.0357,4.1091 -0.96429,0.93072 -0.9643,0.93072 -1.5,0.20206 -1.5,0.20206 -2.22141,-0.11849 -2.22141,-0.11848 -0.82082,-3.16765 -0.82082,-3.16765 -1.64923,-1.04031 -1.64924,-1.04031 -2.05853,1.86295 L 418,479.30998 v 1.74623 1.74624 l -3.5,2.06505 -3.5,2.06505 v 2.35736 2.35736 l 3.75,0.92636 3.75,0.92637 0.30557,2.63752 0.30557,2.63752 -3.80557,0.89999 -3.80557,0.9 v 2.92506 2.92506 l 3.25,0.93208 3.25,0.93209 v 1.65534 1.65534 l 1.2,1.2 1.2,1.2 h 2.28658 2.28658 l 1.46239,-3.5 1.4624,-3.5 H 431.44897 435 v 2.41821 2.41822 l 0.60699,1.58178 0.60699,1.58179 h 3.35446 3.35447 z m 10.2499,-10.18865 -1.20198,-1.20198 -4.25676,-0.56987 -4.25675,-0.56987 -0.29202,-1.51934 -0.29202,-1.51934 1.31921,-1.80413 1.31921,-1.80412 7.15874,-0.17654 7.15874,-0.17653 1.06345,1.0625 1.06346,1.0625 -0.61978,3.09892 -0.61979,3.09893 -1.64271,0.47512 -1.64272,0.47512 -1.52814,0.63531 -1.52815,0.63531 z m -26.80865,-2.15554 -0.59123,-1.54073 0.32908,-2.28173 0.32908,-2.28173 2.5,-0.634 2.5,-0.63399 1.75,0.87818 1.75,0.87819 V 496.03518 499 l -1.75,0.0136 -1.75,0.0137 -2.23785,0.5998 -2.23785,0.5998 z m 43.95097,-1.12777 -0.55319,-1.44158 0.34277,-1.80842 0.34276,-1.80841 3.36897,-0.32284 3.36897,-0.32284 0.92819,0.92819 0.9282,0.9282 -0.66376,2.64465 L 478.78318,499 h -3.42297 -3.42298 z M 516.08831,511 l 0.79257,-1.5 0.57861,-2.75 0.57861,-2.75 H 521 h 2.9619 l 0.60257,2.75 0.60258,2.75 0.38509,1.25 0.38509,1.25 h 2.40894 2.40894 l 1.02663,-1.25 1.02662,-1.25 0.34582,-2.5 0.34582,-2.5 7.20311,-0.5 7.2031,-0.5 1.27442,-1.27752 1.27442,-1.27753 -1.08022,-1.72247 L 548.29462,497.5 541.5,497 l -6.79462,-0.5 -1.08021,-1.72248 -1.08022,-1.72247 1.15955,-1.15955 1.15955,-1.15955 5.81798,-0.12236 5.81797,-0.12237 1.25,-0.80463 1.25,-0.80462 v -1.96574 -1.96573 l -2.75,-1.06028 -2.75,-1.06029 -3.71088,0.48463 -3.71089,0.48463 -0.97515,-1.17498 -0.97515,-1.17499 -0.31397,-4.97461 L 533.5,471.5 l -2.44397,-0.34497 -2.44397,-0.34497 -1.30603,1.7861 -1.30603,1.7861 v 4.36923 4.36924 l -3.75,-0.31036 -3.75,-0.31037 -0.56987,-4.26987 -0.56987,-4.26987 -1.07391,-1.07391 -1.07391,-1.07391 -1.85622,0.35246 -1.85622,0.35246 -0.5,4.99132 -0.5,4.99132 -4.5,1.07861 -4.5,1.07861 -0.31025,2.60743 -0.31025,2.60744 3.80193,0.31395 3.80194,0.31396 0.25706,1.5 0.25706,1.5 -0.86948,1.34986 -0.86948,1.34986 -3.37927,0.68571 -3.37926,0.68571 -0.31306,2.67955 -0.31305,2.67955 2.81305,0.6184 2.81306,0.61841 1.12132,0.33571 1.12132,0.33571 0.70908,2.82517 0.70907,2.82517 1.0821,1.30385 1.0821,1.30385 1.98538,-0.29825 1.98537,-0.29826 z M 519.23832,495.83832 518,494.6 v -1.78095 -1.78095 l 2.57322,-0.64583 2.57321,-0.64584 1.01145,1.01145 1.01145,1.01145 -0.33467,2.36533 L 524.5,496.5 l -2.01168,0.28832 -2.01168,0.28832 z M 391.77749,463.4433 394,461.88659 l 0.0153,-2.19329 0.0153,-2.1933 0.83441,-1.31588 0.83442,-1.31588 4.76441,0.31588 4.7644,0.31588 1.13075,-1.75 1.13075,-1.75 -1.09673,-1.75 -1.09673,-1.75 -4.37854,-0.31875 -4.37853,-0.31876 -1.32018,-1.09565 -1.32018,-1.09565 0.30056,-2.58559 0.30056,-2.5856 6.5,-0.25578 6.5,-0.25578 2.25,-0.51327 2.25,-0.51327 v -2.87396 -2.87396 L 410.41821,432.60699 408.83643,432 H 401.91821 395 v -4.77749 -4.7775 l -1.5567,-2.2225 L 391.88659,418 h -2.42424 -2.42425 l -0.54085,2.25 -0.54086,2.25 -0.26089,4.23269 -0.26089,4.2327 -1.11847,1.11847 -1.11847,1.11847 -2.96877,-0.65205 -2.96877,-0.65206 -0.91189,-3.19911 -0.91189,-3.19911 -2.72557,-0.31714 -2.72556,-0.31713 -0.86121,2.31713 -0.86121,2.31714 0.40387,1.0631 0.40386,1.06309 -2.03526,1.84189 -2.03527,1.8419 v 1.43728 1.43728 l 1.90327,2.41962 1.90327,2.41962 -0.53996,2.06483 -0.53997,2.06483 -2.22692,0.84668 -2.22692,0.84667 -0.605,1.57661 -0.605,1.5766 0.5756,1.5 0.57561,1.5 h 1.29423 1.29424 l 2.06505,3.5 2.06505,3.5 h 1.93495 1.93495 l 2.06505,-3.5 2.06505,-3.5 h 2.49854 2.49854 l 1.03519,1.93426 1.03518,1.93426 v 1.86574 1.86574 l 1.2,1.2 1.2,1.2 h 1.07749 1.0775 z m -14.36345,-16.8067 -0.5722,-1.49115 0.32908,-2.32272 L 377.5,440.5 h 3.5 3.5 v 3.5 3.5 l -3.25688,0.31387 -3.25687,0.31387 z M 514.4433,458.77749 516,456.55499 v -1.66086 -1.66087 l 2.25,-0.60297 2.25,-0.60298 6.12756,-0.0137 6.12755,-0.0136 1.34001,-1.61462 1.34001,-1.61461 -2.32835,-1.88539 -2.32835,-1.88538 -4.63921,-0.11831 -4.63922,-0.11832 -3,-0.64151 -3,-0.6415 V 439.99018 436.5 l 6.41913,-0.70791 6.41913,-0.70792 1.33087,-0.5107 1.33087,-0.5107 -0.0153,-1.28139 -0.0153,-1.28138 -0.81528,-1.28492 -0.81529,-1.28492 -6.33792,-0.46693 -6.33791,-0.46693 -0.57588,-0.57588 -0.57588,-0.57588 -0.50561,-5.5693 -0.5056,-5.5693 -1.72248,-1.0805 -1.72247,-1.08049 -1.26898,1.26898 -1.26897,1.26897 -0.50855,5.67159 -0.50855,5.67159 -3.23562,0.65772 -3.23562,0.65772 -1.44364,-1.12076 -1.44364,-1.12076 -0.32074,-2.47988 -0.32074,-2.47987 -2.84725,-0.99737 -2.84725,-0.99737 -1.40275,1.91838 L 489,423.38226 v 2.19533 2.19532 l -4.41143,0.66154 -4.41142,0.66153 -0.58499,1.52445 -0.58499,1.52445 1.02528,1.91575 1.02528,1.91576 2.22113,0.47287 2.22114,0.47287 2,0.29915 2,0.29915 0.31866,2.233 0.31866,2.233 -3.6212,2.13656 -3.62121,2.13657 0.30255,2.12022 0.30254,2.12022 2.25,0.31955 2.25,0.31955 0.0153,2.68045 0.0153,2.68045 0.84319,1.33008 0.84319,1.33007 2.85967,-0.33007 2.85967,-0.33008 0.93182,-3.26859 0.93182,-3.2686 2.35,-0.58981 2.35001,-0.58982 2.5,0.62746 2.5,0.62746 v 2.54669 2.54669 l 1.03518,1.93426 1.03519,1.93426 h 1.90811 1.90811 z m -16.97843,-15.83433 -0.65316,-1.05683 0.59647,-2.37652 0.59647,-2.37651 1.91263,-0.60705 1.91264,-0.60704 2.58504,0.6488 2.58504,0.64881 v 2.7846 2.7846 l -1.58179,0.60699 L 503.83643,444 h -2.8592 -2.8592 z M 493.42857,414.42857 495,412.85714 V 409.92857 407 l 0.75,-0.0663 0.75,-0.0663 6.8083,-0.41072 6.80831,-0.41072 0.94169,-0.582 0.9417,-0.582 v -2.42193 -2.42194 l -2.25,-0.50284 -2.25,-0.50284 -4.5,-0.45402 -4.5,-0.45402 -1.81642,-0.0622 -1.81642,-0.0622 0.31642,-2.75 0.31642,-2.75 7,-0.5 7,-0.5 1.25,-0.80902 1.25,-0.80901 -0.0153,-0.69099 -0.0153,-0.69098 -0.91145,-1.44052 -0.91145,-1.44051 -6.61511,-0.68469 -6.6151,-0.68469 -0.62596,-0.62595 -0.62595,-0.62595 -0.4545,-5.74885 -0.45451,-5.74884 -1.00011,-1.25 -1.00012,-1.25 h -1.30613 -1.30612 l -1.57143,1.57143 L 487,372.14286 v 5.30612 5.30613 l -1.52961,1.26947 -1.52962,1.26946 -2.49845,-1.13837 -2.49845,-1.13837 -0.54409,-1.75865 -0.54408,-1.75865 -0.78684,-1.5 -0.78683,-1.5 H 473.89101 471.5 l -1.12783,3.48948 -1.12784,3.48948 -2.87216,1.59189 -2.87217,1.59189 v 2.41863 2.41863 l 3.25,0.31336 3.25,0.31336 v 2.91096 2.91096 l -3.06199,1.58341 -3.06198,1.58342 0.31198,2.15127 0.31199,2.15127 2.4979,0.58559 2.49791,0.58558 0.50647,2.95541 0.50647,2.95541 3.15376,0.30651 3.15376,0.3065 0.67153,-3.05745 0.67152,-3.05744 2.41811,-0.60691 2.4181,-0.6069 1.40794,0.54027 1.40794,0.54028 0.70977,3.31757 0.70977,3.31757 1.00697,1.25 1.00697,1.25 h 1.30613 1.30612 z m -14.7637,-18.60211 -0.56839,-2.17354 0.51077,-0.82646 L 479.11803,392 H 482.55902 486 v 3 3 h -3.38337 -3.38337 z M 410.6636,412 l 1.22669,-2.5 0.52347,-1.75 0.52347,-1.75 5.78139,-0.0153 5.78138,-0.0153 1.15005,-0.73468 1.15005,-0.73469 0.34995,-1.94451 0.34995,-1.94452 -2.5,-1.29074 -2.5,-1.29075 -4.64301,-0.0147 -4.64301,-0.0147 -0.5645,-1.47106 -0.5645,-1.47106 1.52894,-1.52894 L 415.14286,392 h 4.34678 4.34679 l 1.58178,-0.60699 L 427,390.78602 v -1.83399 -1.834 l -1.25,-0.79849 -1.25,-0.7985 -5.44072,-0.51052 -5.44072,-0.51052 -0.84811,-3.28951 -0.84811,-3.28952 -2.54509,-0.96764 -2.54508,-0.96764 -0.91609,0.56617 L 405,377.11803 v 2.00673 2.00672 l -1.03518,1.93426 L 402.92963,385 h -3.39743 -3.39742 l -0.63194,-1.99105 -0.63194,-1.99105 0.55354,-0.89564 0.55354,-0.89565 -1.476,-1.22497 -1.47601,-1.22497 -2.51298,0.63071 -2.51299,0.63072 -0.0153,2.23095 -0.0153,2.23095 -0.73468,1.09563 -0.73469,1.09562 -3,1.41785 -3,1.41785 v 1.98652 1.98653 l 2.74756,0.31619 2.74756,0.31618 0.62922,2.50703 0.62923,2.50703 -0.87679,0.82972 -0.87678,0.82972 -1.89282,0.34707 -1.89281,0.34706 -1.0492,1.66618 -1.04919,1.66617 1.31445,1.58383 1.31446,1.58382 h 1.86413 1.86414 l 1.49259,3.57228 1.4926,3.57228 2.23745,-0.32228 2.23745,-0.32228 0.92804,-3.25 0.92803,-3.25 H 398.64466 402 v 1.9349 1.9349 l 1.00049,2.63148 1.00048,2.63147 2.71797,-0.31637 2.71797,-0.31638 z M 396.2,397.8 395,396.6 v -1.2433 -1.24329 l 2.06469,-1.44617 2.06469,-1.44617 1.86614,0.48801 1.86613,0.488 0.43777,1.15146 0.43778,1.15146 -0.83638,2.25 -0.83637,2.25 H 399.73222 397.4 Z M 476.17126,368.34501 478,366.69002 V 362.84501 359 l 1.25,-0.1343 1.25,-0.13429 4.2854,0.22736 4.2854,0.22736 1.4646,-1.21551 1.4646,-1.21551 v -2.33055 -2.33055 l -3.68907,-1.0186 -3.68907,-1.01861 -2.06093,0.48155 -2.06093,0.48155 -1.15005,-0.75995 -1.15005,-0.75995 -0.21843,-1.5 -0.21844,-1.5 0.11849,-1.25 L 478,344 l 6.75,-0.0153 6.75,-0.0153 1.33749,-0.84777 1.33749,-0.84778 -0.33749,-2.38691 L 493.5,337.5 l -7,-0.28336 -7,-0.28337 -1.25,-1.65776 -1.25,-1.65777 v -4.27369 -4.27368 l -1.75,-0.91702 -1.75,-0.91702 -2.25,0.84961 -2.25,0.84961 -0.1063,3.28223 -0.1063,3.28222 -0.1437,2 -0.1437,2 h -4.9863 -4.98631 l -0.3713,-2 -0.37131,-2 -1.01483,-1.25 -1.01484,-1.25 H 453.5 451.24489 l -1.02663,1.25 -1.02662,1.25 -0.34582,2.5 -0.34582,2.5 -3,0.33849 -3,0.33848 -1.27258,1.0527 -1.27258,1.0527 0.65736,2.10881 0.65736,2.10882 1.11522,0.75689 1.11522,0.75689 2.5,-0.25689 2.5,-0.25689 0.3059,2.64094 0.3059,2.64093 -3.8059,1.85907 -3.8059,1.85906 -0.34839,1.88017 -0.3484,1.88018 1.3484,0.85451 1.34839,0.85451 2.27144,0.0153 2.27144,0.0153 1.11401,2.44499 1.11401,2.44499 1.50543,0.57768 1.50542,0.57769 1.79577,-0.56995 1.79577,-0.56996 0.31335,-2.17489 0.31336,-2.17489 4.33279,-0.85305 4.33278,-0.85305 1.31755,0.50559 1.31756,0.50559 0.6909,4.08945 0.69091,4.08944 1.48018,1.48019 1.48019,1.48018 h 0.59983 0.59983 z m -17.00875,-18.19719 -1.33749,-0.874 0.33749,-2.38691 L 458.5,344.5 h 5 5 v 3 3 l -4,0.26091 -4,0.26091 z M 425.39301,367.41821 426,365.83643 v -2.38303 -2.38303 l 1.93426,-1.03519 L 429.86852,359 h 4.09712 4.09713 l 0.5899,-1.53725 0.58989,-1.53724 -1.77627,-1.96276 L 435.69002,352 H 431.34501 427 v -2.87219 -2.87219 l 3.93296,-0.62891 3.93296,-0.62891 0.65835,-2.07426 0.65834,-2.07426 -0.67315,-0.67464 -0.67315,-0.67464 -3.62201,-1.01909 -3.62201,-1.0191 -0.36907,-3.9809 -0.36907,-3.98091 -1.39013,-1.42735 -1.39014,-1.42734 -2.53694,1.15591 -2.53694,1.1559 v 4.40012 4.40012 l -3.13409,1.29818 -3.13409,1.29819 -1.36591,-1.868 L 410,336.61774 v -1.68642 -1.68643 l -1.45196,-1.20502 -1.45196,-1.20502 -1.76258,0.33944 -1.76258,0.33944 -0.97123,3.38647 -0.97122,3.38646 -3.31424,1.95545 L 395,342.19755 v 1.27878 1.27878 l 1.25,1.01484 1.25,1.01483 2,0.37131 2,0.3713 v 1.87732 1.87732 l -1.5,0.79942 -1.5,0.79943 -2.81306,0.59444 -2.81305,0.59444 0.31305,2.71512 0.31306,2.71512 3,0.30964 3,0.30965 1.5,3.19035 1.5,3.19036 2.6536,0.30712 2.65359,0.30712 1.13916,-3.45167 1.13915,-3.45167 2.0537,-0.53705 2.0537,-0.53706 1.40355,0.5386 1.40355,0.53859 v 3.19301 3.19301 l 1.2,1.2 1.2,1.2 h 2.69301 2.69301 z m -14.75034,-16.18736 -0.54619,-0.88377 0.56839,-2.17354 0.56839,-2.17354 2.13337,0.0153 2.13337,0.0153 1.5,0.95622 1.5,0.95622 -1.10086,1.77846 -1.10086,1.77847 -2.55471,0.30731 -2.5547,0.30731 z M 455.38782,314 l 0.95148,-3.5 0.28817,-0.37449 0.28817,-0.37449 7.88531,-0.25637 7.88531,-0.25638 2.15687,-1.15432 L 477,306.92963 V 305.66482 304.4 l -1.2,-1.2 -1.2,-1.2 -6.55,-0.0997 -6.55,-0.0997 -2.5,-0.68962 -2.5,-0.68962 -0.31336,-3.2107 L 455.87328,294 h 7.98157 7.98158 l 1.58178,-0.60699 L 475,292.78602 v -2.41776 -2.41776 L 472.4349,286.97525 469.8698,286 h -5.98593 -5.98592 l -1.48766,-3.56047 -1.48766,-3.56048 -3.20694,0.31048 -3.20694,0.31047 -0.51275,2.99163 -0.51274,2.99163 -2.99163,0.55804 -2.99163,0.55804 -1.75,-0.4163 -1.75,-0.4163 V 283.58337 281.4 l -1.2,-1.2 -1.2,-1.2 h -1.78658 -1.78658 l -1.46239,3.5 -1.4624,3.5 h -4.11676 -4.11677 l -1.93426,1.03518 L 417,288.07037 v 2.44576 2.44577 l 2.25,0.50251 2.25,0.5025 4,0.26655 4,0.26654 0.33008,2.89149 0.33007,2.8915 -1.33007,0.84319 -1.33008,0.84319 -3.31574,0.0153 -3.31574,0.0153 -1.93426,1.03518 L 417,304.07037 v 1.9962 1.9962 l 1.25,0.42323 1.25,0.42323 4.44352,0.32274 4.44352,0.32275 0.83507,3.22264 0.83507,3.22264 h 3.0028 3.00279 l 0.54077,-1.75 0.54076,-1.75 0.78684,-1.5 0.78683,-1.5 h 3.89102 3.89101 l 0.33849,3 0.33848,3 1.07592,1.30056 1.07592,1.30056 2.55377,-0.30056 2.55377,-0.30056 z m -16.37704,-13.48701 -1.23411,-1.48702 0.64536,-2.57134 0.64537,-2.57134 3.7163,0.30835 3.7163,0.30836 0.32676,2.30504 0.32677,2.30504 -1.19921,1.44496 L 444.75511,302 H 442.5 440.24489 Z"
       id="path10947" /></g></svg>
