<?xml version="1.0" encoding="UTF-8"?>
<svg version="1.1" xmlns="http://www.w3.org/2000/svg" width="210" height="210">
<path d="M0 0 C69.3 0 138.6 0 210 0 C210 69.3 210 138.6 210 210 C140.7 210 71.4 210 0 210 C0 140.7 0 71.4 0 0 Z " fill="#FEFEFE" transform="translate(0,0)"/>
<path d="M0 0 C7.27604303 4.21244597 13.54564531 11.01213172 15.81640625 19.16015625 C16.33007741 24.86841744 16.79002706 30.08248029 14.31852722 35.35658264 C12.58259386 39.29351612 12.37557833 43.03964001 12.3840332 47.29858398 C12.37384155 48.07989182 12.3636499 48.86119965 12.35314941 49.66618347 C12.32317303 52.22544671 12.31377725 54.78433474 12.3046875 57.34375 C12.28782938 59.12737761 12.26967762 60.91099343 12.25028992 62.69459534 C12.20290671 67.37161573 12.17302194 72.04858827 12.14685059 76.72576904 C12.11172816 82.34690996 12.05474876 87.96786718 12.00145721 93.58885956 C11.92308028 102.11260143 11.87237127 110.63610509 11.81640625 119.16015625 C-6.66359375 119.16015625 -25.14359375 119.16015625 -44.18359375 119.16015625 C-46.54396544 114.43941286 -48.82672445 109.87199213 -50.87109375 105.03515625 C-51.28746094 104.06320313 -51.70382813 103.09125 -52.1328125 102.08984375 C-59.26999182 82.1906449 -53.62849875 57.80524775 -45.2578125 39.19921875 C-42.45169318 33.73494874 -39.27871365 28.46607608 -36.18359375 23.16015625 C-52.02359375 23.16015625 -67.86359375 23.16015625 -84.18359375 23.16015625 C-84.18359375 54.51015625 -84.18359375 85.86015625 -84.18359375 118.16015625 C-84.84359375 118.16015625 -85.50359375 118.16015625 -86.18359375 118.16015625 C-86.18359375 86.15015625 -86.18359375 54.14015625 -86.18359375 21.16015625 C-60.87109375 21.41015625 -60.87109375 21.41015625 -52.94799805 21.58300781 C-40.90083593 22.08698283 -40.90083593 22.08698283 -30.19946289 17.54931641 C-27.36759478 14.73647029 -25.28673247 11.54768411 -23.18359375 8.16015625 C-21.90780028 6.7510316 -20.60323677 5.36611232 -19.24609375 4.03515625 C-18.74207031 3.51695313 -18.23804687 2.99875 -17.71875 2.46484375 C-12.7009742 -1.79962729 -6.0888633 -2.3418705 0 0 Z " fill="#884742" transform="translate(140.18359375,22.83984375)"/>
<path d="M0 0 C0 24.75 0 49.5 0 75 C-17.16 75 -34.32 75 -52 75 C-50.89152725 65.02374528 -50.89152725 65.02374528 -49.125 61.8125 C-47.25460394 57.97818807 -46.39917519 54.38094896 -45.625 50.1875 C-43.43132595 39.24271766 -38.35577628 30.31011851 -31 22 C-30.28199219 21.18789062 -29.56398438 20.37578125 -28.82421875 19.5390625 C-22.32383532 12.62376098 -15.08108946 7.82497283 -7 3 C-6.07832031 2.42121094 -5.15664062 1.84242187 -4.20703125 1.24609375 C-2 0 -2 0 0 0 Z " fill="#FEAFAB" transform="translate(150,65)"/>
<path d="M0 0 C10.56 0 21.12 0 32 0 C30.5116131 4.46516071 28.902485 8.62547409 27.0625 12.9375 C22.30129869 24.72472938 20.75457962 35.78915932 20.6875 48.4375 C20.68186035 49.45642334 20.6762207 50.47534668 20.67041016 51.52514648 C20.75016756 59.7502976 22.38655647 66.1596694 25 74 C16.75 74 8.5 74 0 74 C0 49.58 0 25.16 0 0 Z " fill="#FEAFAB" transform="translate(66,56)"/>
<path d="M0 0 C4 6 4 6 3.80859375 8.1875 C2.96497251 11.12183476 1.95375455 13.96918276 0.87939453 16.82641602 C-2.14581253 24.8758537 -4.13342439 32.40894865 -5 41 C-4.87471924 40.41621582 -4.74943848 39.83243164 -4.62036133 39.23095703 C0.03678412 17.83554507 0.03678412 17.83554507 5 10 C5.51949219 10.42152344 6.03898437 10.84304687 6.57421875 11.27734375 C11.73119147 15.38259932 11.73119147 15.38259932 18 17 C19.60712463 17.34049251 21.211144 17.69583437 22.8125 18.0625 C23.60269531 18.23910156 24.39289063 18.41570312 25.20703125 18.59765625 C25.79871094 18.73042969 26.39039063 18.86320312 27 19 C25.55321537 22.29217318 23.72142266 24.52904829 21.25 27.125 C12.03580665 37.37412086 8.29265821 48.47206389 5.56640625 61.80859375 C4.6836156 65.22408035 3.30190993 68.40841932 1.90234375 71.640625 C0.77899025 74.38093474 0.77899025 74.38093474 0 79 C17.16 79 34.32 79 52 79 C52 53.59 52 28.18 52 2 C52.33 2 52.66 2 53 2 C53 28.07 53 54.14 53 81 C34.85 81 16.7 81 -2 81 C-7.19047619 70.61904762 -7.19047619 70.61904762 -9 65 C-8.67 64.01 -8.34 63.02 -8 62 C-7.01 64.97 -6.02 67.94 -5 71 C-3.35 71 -1.7 71 0 71 C0.12375 70.278125 0.2475 69.55625 0.375 68.8125 C0.9904931 66.04278106 1.88444374 63.6029646 3 61 C-0.3 61 -3.6 61 -7 61 C-7.33 60.34 -7.66 59.68 -8 59 C-8.33 58.67 -8.66 58.34 -9 58 C-11.50106553 55.49893447 -10.2415772 48.7864035 -10.25 45.4375 C-10.24446298 29.79651274 -8.95256379 13.42884568 0 0 Z " fill="#7B3635" transform="translate(98,61)"/>
<path d="M0 0 C6.50849688 2.87468983 10.30787056 7.51147464 13.66796875 13.65234375 C16.18416544 21.46579663 16.66683594 27.61423722 13.13671875 35.19921875 C11.11874538 38.57071084 9.51852394 39.87462168 5.85546875 41.33984375 C0.13994934 42.32014723 -4.61122193 42.24400154 -9.45703125 38.83984375 C-15.60795736 33.48462266 -20.49887558 27.31215867 -21.39453125 19.02734375 C-21.69071939 12.95548697 -20.79862383 8.28026798 -17.14453125 3.33984375 C-12.0072015 -1.43906764 -6.56132094 -2.01978732 0 0 Z " fill="#FD8163" transform="translate(139.14453125,24.66015625)"/>
<path d="M0 0 C0 24.75 0 49.5 0 75 C-17.16 75 -34.32 75 -52 75 C-51 66 -51 66 -50 65 C-47.04294679 64.91131701 -44.10934944 64.88479704 -41.15234375 64.90234375 C-39.82270348 64.90446617 -39.82270348 64.90446617 -38.46620178 64.90663147 C-35.62326746 64.91224785 -32.78041069 64.92480309 -29.9375 64.9375 C-28.01497509 64.94251289 -26.09244896 64.94707616 -24.16992188 64.95117188 C-19.44658451 64.96222259 -14.72330542 64.97949817 -10 65 C-10.01776489 64.25941849 -10.03552979 63.51883698 -10.05383301 62.7558136 C-10.21430615 55.76742928 -10.33601299 48.77968549 -10.41449738 41.78997517 C-10.45620637 38.19650337 -10.51274245 34.60455673 -10.60351562 31.01196289 C-10.69061568 27.54292594 -10.73830643 24.07535276 -10.75901794 20.60530663 C-10.78093853 18.64118977 -10.84336805 16.67766024 -10.90637207 14.71443176 C-10.91075299 6.00789473 -10.91075299 6.00789473 -8.23608398 3.04794312 C-5.52259345 1.29066892 -3.27246211 0 0 0 Z " fill="#FDFBFB" transform="translate(150,65)"/>
<path d="M0 0 C1.37584285 2.7516857 0.87498427 4.80908077 0.6875 7.875 C0.65424109 15.38319834 2.55788618 20.94092041 7 27 C11.37484304 31.01612151 16.23827546 33.52263473 22 35 C18.06369452 39.25120992 13.86207099 43.31559172 8.125 44.6875 C0.01352938 42.90297646 -6.31317839 36.60415772 -11 30 C-13.13891396 25.53617956 -13.81279691 20.9025135 -13 16 C-11.55921812 13.22453624 -9.67318476 10.97529201 -7.625 8.625 C-6.86316406 7.70267578 -6.86316406 7.70267578 -6.0859375 6.76171875 C-4.13810023 4.41918813 -2.15470181 2.15470181 0 0 Z " fill="#FB8063" transform="translate(117,33)"/>
<path d="M0 0 C6.25 4.39453125 6.25 4.39453125 8 6 C8 9.37769385 6.95493367 11.13343723 5.35766602 14.03955078 C-0.75819018 25.20904262 -2.97644778 36.54434845 -5 49 C-6.65 49 -8.3 49 -10 49 C-10.62923839 39.36566112 -9.8280282 30.56164951 -7.8125 21.125 C-7.6163208 20.1755249 -7.4201416 19.2260498 -7.21801758 18.24780273 C-5.71424355 11.6213835 -3.28805966 5.93706576 0 0 Z " fill="#FCC62D" transform="translate(103,71)"/>
<path d="M0 0 C2.19140625 1.40234375 2.19140625 1.40234375 4 4 C4.59481527 7.34264052 4.55805953 10.61319431 4.5 14 C4.51546875 14.90234375 4.5309375 15.8046875 4.546875 16.734375 C4.50820221 23.27007674 4.50820221 23.27007674 2.19140625 26.59765625 C-1.00136393 28.64080151 -3.29662527 28.4713386 -7 28 C-9.27647371 26.36351731 -9.92055979 25.4732438 -10.38818359 22.6875 C-10.39156738 21.800625 -10.39495117 20.91375 -10.3984375 20 C-10.40230469 19.030625 -10.40617188 18.06125 -10.41015625 17.0625 C-10.39855469 16.051875 -10.38695312 15.04125 -10.375 14 C-10.38660156 12.989375 -10.39820313 11.97875 -10.41015625 10.9375 C-10.40628906 9.968125 -10.40242187 8.99875 -10.3984375 8 C-10.39505371 7.113125 -10.39166992 6.22625 -10.38818359 5.3125 C-9.40117098 -0.56736385 -5.22767702 -0.64199542 0 0 Z " fill="#854545" transform="translate(156,157)"/>
<path d="M0 0 C7.57271265 2.92612868 12.82881478 9.42805012 16.9375 16.1875 C18.76181165 22.73355947 19.43697537 29.93354008 16.50212097 36.19642639 C14.76618761 40.13335987 14.55917208 43.87948376 14.56762695 48.13842773 C14.5574353 48.91973557 14.54724365 49.7010434 14.53674316 50.50602722 C14.50676678 53.06529046 14.497371 55.62417849 14.48828125 58.18359375 C14.47142313 59.96722136 14.45327137 61.75083718 14.43388367 63.53443909 C14.38650046 68.21145948 14.35661569 72.88843202 14.33044434 77.56561279 C14.30057973 82.34527025 14.25406972 87.12476304 14.20898438 91.90429688 C14.12308422 101.2694449 14.05567998 110.63462694 14 120 C13.67 120 13.34 120 13 120 C12.77590638 109.74239369 12.57453517 99.48461115 12.40159988 89.22600746 C12.32058369 84.46173279 12.23195347 79.69786135 12.12548828 74.93408203 C12.02289513 70.33069753 11.94087007 65.72735093 11.87267303 61.12333298 C11.84321428 59.37307451 11.80653491 57.62292115 11.7622757 55.8729744 C11.34977654 39.22301081 11.34977654 39.22301081 15.12493896 32.0262146 C17.21656834 27.18302103 15.73988434 22.13744365 14.0859375 17.359375 C11.37078509 11.1902532 7.86668045 7.32608871 2 4 C-1.42232972 2.85922343 -4.08673217 2.90184883 -7.6875 2.9375 C-8.86699219 2.94652344 -10.04648438 2.95554687 -11.26171875 2.96484375 C-12.61716797 2.98224609 -12.61716797 2.98224609 -14 3 C-9.54651571 -0.84061948 -5.67503263 -0.8902012 0 0 Z M-38 35 C-36.85587864 36.71618204 -35.72458289 38.44145428 -34.6328125 40.19140625 C-34.13523437 40.97386719 -33.63765625 41.75632812 -33.125 42.5625 C-32.63257812 43.34753906 -32.14015625 44.13257812 -31.6328125 44.94140625 C-29.33587615 47.83730447 -26.93731365 48.63949475 -23.5625 49.9375 C-21 51 -21 51 -18.5625 52.625 C-15.36923525 54.33845913 -13.59664436 54.34506551 -10 54 C-7.17158114 52.52455748 -7.17158114 52.52455748 -4.625 50.5 C-3.75101563 49.8503125 -2.87703125 49.200625 -1.9765625 48.53125 C-1.32429688 48.0259375 -0.67203125 47.520625 0 47 C-0.495 45.515 -0.495 45.515 -1 44 C-0.31292969 43.86722656 0.37414062 43.73445313 1.08203125 43.59765625 C2.43361328 43.33275391 2.43361328 43.33275391 3.8125 43.0625 C4.70582031 42.88847656 5.59914062 42.71445313 6.51953125 42.53515625 C9.11397171 42.02258847 9.11397171 42.02258847 12 41 C12 41.66 12 42.32 12 43 C10.65808594 43.72703125 10.65808594 43.72703125 9.2890625 44.46875 C8.06658109 45.14379595 6.84531243 45.82104093 5.625 46.5 C4.98594727 46.85368652 4.34689453 47.20737305 3.68847656 47.57177734 C-0.39358236 49.89545815 -3.7716408 52.43557798 -7.25 55.625 C-11.20900076 58.91660783 -11.20900076 58.91660783 -14.51953125 59.265625 C-21.7490966 58.15509269 -28.10278859 54.34761823 -32.859375 48.8515625 C-36.13504346 44.28122507 -37.76084729 40.62008868 -38 35 Z " fill="#905250" transform="translate(138,22)"/>
<path d="M0 0 C3.3 0 6.6 0 10 0 C13.21599941 3.21599941 13.38084002 3.38603196 13.3984375 7.5625 C13.40230469 8.44164062 13.40617188 9.32078125 13.41015625 10.2265625 C13.39855469 11.14179688 13.38695312 12.05703125 13.375 13 C13.38660156 13.91523438 13.39820313 14.83046875 13.41015625 15.7734375 C13.40628906 16.65257812 13.40242187 17.53171875 13.3984375 18.4375 C13.39505371 19.24058594 13.39166992 20.04367188 13.38818359 20.87109375 C13 23 13 23 10 26 C6.7 26 3.4 26 0 26 C0 17.42 0 8.84 0 0 Z " fill="#793333" transform="translate(126,158)"/>
<path d="M0 0 C4 6 4 6 3.8046875 8.203125 C2.98104381 11.06588657 1.98929408 13.83655908 0.93041992 16.62011719 C-4.17268327 30.11495571 -6.27417088 43.6085606 -7 58 C-7.99 57.67 -8.98 57.34 -10 57 C-10.94654724 16.41982086 -10.94654724 16.41982086 0 0 Z " fill="#FACB4B" transform="translate(98,61)"/>
<path d="M0 0 C1.70703125 1.13671875 1.70703125 1.13671875 3 3 C3.29296875 5.91796875 3.29296875 5.91796875 3.1875 9.1875 C3.16042969 10.27417969 3.13335937 11.36085937 3.10546875 12.48046875 C3.07066406 13.31191406 3.03585938 14.14335937 3 15 C-0.3 15 -3.6 15 -7 15 C-6.67 17.97 -6.34 20.94 -6 24 C-4.02 24.33 -2.04 24.66 0 25 C0 23.35 0 21.7 0 20 C0.99 20 1.98 20 3 20 C3.21917317 22.70313576 3.32851983 24.43958382 1.9375 26.8125 C-1.09375543 28.67036623 -3.53422859 28.37133265 -7 28 C-9.28221439 26.3684371 -9.92043856 25.47396602 -10.38818359 22.6875 C-10.39156738 21.800625 -10.39495117 20.91375 -10.3984375 20 C-10.40230469 19.030625 -10.40617187 18.06125 -10.41015625 17.0625 C-10.39855469 16.051875 -10.38695313 15.04125 -10.375 14 C-10.38660156 12.989375 -10.39820312 11.97875 -10.41015625 10.9375 C-10.40628906 9.968125 -10.40242188 8.99875 -10.3984375 8 C-10.39505371 7.113125 -10.39166992 6.22625 -10.38818359 5.3125 C-9.39644073 -0.59554301 -5.23971904 -0.56139847 0 0 Z " fill="#7F3C3C" transform="translate(115,157)"/>
<path d="M0 0 C2.31 0.66 4.62 1.32 7 2 C7 6.05711578 5.41484963 7.24838642 2.875 10.375 C-4.54057326 19.8888799 -8.57935091 30.21526102 -11 42 C-11.99 42 -12.98 42 -14 42 C-13.01165124 28.41020451 -10.10669977 10.10669977 0 0 Z " fill="#F9C430" transform="translate(113,79)"/>
<path d="M0 0 C0.99 0.33 1.98 0.66 3 1 C2.68546875 1.54785156 2.3709375 2.09570312 2.046875 2.66015625 C-5.31131708 16.29054218 -7.17546585 30.6523517 -7.0625 45.9375 C-7.05798828 47.09830078 -7.05347656 48.25910156 -7.04882812 49.45507812 C-7.03710647 52.30343934 -7.0206976 55.15169222 -7 58 C-6.34 58.33 -5.68 58.66 -5 59 C-5 54.71 -5 50.42 -5 46 C-4.67 46 -4.34 46 -4 46 C-3.97314588 48.31243792 -3.95367159 50.6249627 -3.9375 52.9375 C-3.92589844 54.22527344 -3.91429688 55.51304688 -3.90234375 56.83984375 C-4 60 -4 60 -5 61 C-1.7 61.33 1.6 61.66 5 62 C4.39009109 65.55780196 3.4216319 68.6828589 2 72 C0.35 72 -1.3 72 -3 72 C-3.26554687 71.44570312 -3.53109375 70.89140625 -3.8046875 70.3203125 C-4.15789062 69.59585938 -4.51109375 68.87140625 -4.875 68.125 C-5.39707031 67.04605469 -5.39707031 67.04605469 -5.9296875 65.9453125 C-6.96557543 63.84864981 -6.96557543 63.84864981 -9 62 C-14.1578359 41.36865639 -9.01381852 18.6886504 0 0 Z " fill="#7F3830" transform="translate(96,60)"/>
<path d="M0 0 C1.65 0 3.3 0 5 0 C7.39537771 8.61638292 9.60213923 17.15301274 11 26 C9.68 25.67 8.36 25.34 7 25 C7 23.35 7 21.7 7 20 C3.04 20.495 3.04 20.495 -1 21 C-1.33 22.65 -1.66 24.3 -2 26 C-2.99 26 -3.98 26 -5 26 C-3.63948216 17.26067362 -1.91580102 8.63387662 0 0 Z " fill="#783232" transform="translate(54,158)"/>
<path d="M0 0 C3 0.125 3 0.125 4 1.125 C4.09880797 2.60152664 4.13079245 4.08267236 4.1328125 5.5625 C4.13474609 6.90441406 4.13474609 6.90441406 4.13671875 8.2734375 C4.13285156 9.21445313 4.12898437 10.15546875 4.125 11.125 C4.12886719 12.06601563 4.13273438 13.00703125 4.13671875 13.9765625 C4.13542969 14.87117187 4.13414062 15.76578125 4.1328125 16.6875 C4.13168457 17.51378906 4.13055664 18.34007812 4.12939453 19.19140625 C4 21.125 4 21.125 3 22.125 C0 22.25 0 22.25 -3 22.125 C-4.58937556 20.53562444 -4.12981143 18.88600154 -4.1328125 16.6875 C-4.13410156 15.79289063 -4.13539063 14.89828125 -4.13671875 13.9765625 C-4.13091797 12.56503906 -4.13091797 12.56503906 -4.125 11.125 C-4.12886719 10.18398437 -4.13273438 9.24296875 -4.13671875 8.2734375 C-4.13542969 7.37882813 -4.13414062 6.48421875 -4.1328125 5.5625 C-4.13112061 4.32306641 -4.13112061 4.32306641 -4.12939453 3.05859375 C-3.91367654 -0.16496561 -3.2895365 0.13706402 0 0 Z " fill="#F8F5F5" transform="translate(153,159.875)"/>
<path d="M0 0 C1.9375 1.0625 1.9375 1.0625 3 3 C3.1875 6.6875 3.1875 6.6875 3 10 C2.34 10 1.68 10 1 10 C0.67 8.02 0.34 6.04 0 4 C-1.98 4 -3.96 4 -6 4 C-6 10.6 -6 17.2 -6 24 C-4.02 24 -2.04 24 0 24 C0.33 22.68 0.66 21.36 1 20 C1.66 20 2.32 20 3 20 C2.74438677 22.3431213 2.40729228 24.67843403 2 27 C-1.04983996 28.52491998 -3.6423369 28.23562548 -7 28 C-8.69775391 26.796875 -8.69775391 26.796875 -10 25 C-10.38818359 22.6875 -10.38818359 22.6875 -10.3984375 20 C-10.40230469 19.030625 -10.40617187 18.06125 -10.41015625 17.0625 C-10.39855469 16.051875 -10.38695313 15.04125 -10.375 14 C-10.38660156 12.989375 -10.39820312 11.97875 -10.41015625 10.9375 C-10.40628906 9.968125 -10.40242188 8.99875 -10.3984375 8 C-10.39505371 7.113125 -10.39166992 6.22625 -10.38818359 5.3125 C-9.39644073 -0.59554301 -5.23971904 -0.56139847 0 0 Z " fill="#7C3838" transform="translate(95,157)"/>
<path d="M0 0 C1.65 0 3.3 0 5 0 C7.36568222 2.36568222 7.25571704 2.85232226 7.265625 6.0625 C7.26820313 6.85914063 7.27078125 7.65578125 7.2734375 8.4765625 C7.26570312 9.30929688 7.25796875 10.14203125 7.25 11 C7.25773438 11.83273438 7.26546875 12.66546875 7.2734375 13.5234375 C7.27085937 14.32007813 7.26828125 15.11671875 7.265625 15.9375 C7.26336914 16.66839844 7.26111328 17.39929688 7.25878906 18.15234375 C7 20 7 20 5 22 C3.35 22 1.7 22 0 22 C0 14.74 0 7.48 0 0 Z " fill="#FCFAFA" transform="translate(129,160)"/>
<path d="M0 0 C0.2475 0.515625 0.495 1.03125 0.75 1.5625 C1.1625 2.366875 1.575 3.17125 2 4 C2.515625 5.0725 3.03125 6.145 3.5625 7.25 C6.51907051 12.44367139 11.64644424 17.32322212 17 20 C22.84877291 20.56238201 25.27579607 19.28640273 30 16 C32.875 15.75 32.875 15.75 35 16 C31.06369452 20.25120992 26.86207099 24.31559172 21.125 25.6875 C13.02904604 23.90639013 6.66256693 17.60971845 2 11 C0.28236611 7.19133356 -0.244674 4.15945793 0 0 Z " fill="#FAEAE7" transform="translate(104,52)"/>
<path d="M0 0 C2.07282741 2.07282741 2.78327493 3.61972668 4 6.25 C7.04437107 11.82534228 11.20197806 14.58795006 17 17 C21.9273517 17.83514436 25.32419562 16.94749508 29.48828125 14.35546875 C32.12405889 11.9921229 32.91305242 9.32478082 34 6 C34.33 6 34.66 6 35 6 C34.42011311 11.9148463 33.46935851 15.76214385 29 19.8125 C24.29839562 21.67355173 19.97559289 21.84557126 15 21 C8.99133894 18.19115673 4.17202252 12.75827085 1 7 C0.30257735 4.55671139 0.10669175 2.56060199 0 0 Z " fill="#FBEEEC" transform="translate(119,45)"/>
<path d="M0 0 C0.33 0 0.66 0 1 0 C1 2.97 1 5.94 1 9 C3.31 9 5.62 9 8 9 C8 9.66 8 10.32 8 11 C5.69 11 3.38 11 1 11 C1.33 14.3 1.66 17.6 2 21 C3.98 21.33 5.96 21.66 8 22 C8 20.35 8 18.7 8 17 C8.99 17 9.98 17 11 17 C11.21917317 19.70313576 11.32851983 21.43958382 9.9375 23.8125 C6.90624457 25.67036623 4.46577141 25.37133265 1 25 C-1.18105873 23.41043611 -1.90734095 22.53377687 -2.37231445 19.85522461 C-2.3693335 19.04577393 -2.36635254 18.23632324 -2.36328125 17.40234375 C-2.36263672 16.51869141 -2.36199219 15.63503906 -2.36132812 14.72460938 C-2.34521484 13.80486328 -2.32910156 12.88511719 -2.3125 11.9375 C-2.31572266 11.01388672 -2.31894531 10.09027344 -2.32226562 9.13867188 C-2.26705173 2.26705173 -2.26705173 2.26705173 0 0 Z " fill="#7B3636" transform="translate(107,160)"/>
<path d="M0 0 C0.99 0.33 1.98 0.66 3 1 C2.21625 1.721875 1.4325 2.44375 0.625 3.1875 C-3.82674827 7.95723029 -4.46398697 12.00698564 -4.3125 18.37890625 C-3.44656796 25.64191124 0.52531222 32.21893782 6 37 C8.61734226 38.59686224 11.17190171 39.78099211 14 41 C11.4936232 41.9356384 10.37410118 42.15032066 7.8515625 41.13671875 C0.84939177 36.57916552 -3.35017408 30.94947777 -6 23 C-6.06970052 20.60509014 -6.08448003 18.20832309 -6.0625 15.8125 C-6.05347656 14.54019531 -6.04445313 13.26789062 -6.03515625 11.95703125 C-6.02355469 10.98121094 -6.01195313 10.00539063 -6 9 C-7.32 10.32 -8.64 11.64 -10 13 C-10.66 12.67 -11.32 12.34 -12 12 C-8.04 8.04 -4.08 4.08 0 0 Z " fill="#833632" transform="translate(123,25)"/>
<path d="M0 0 C8.57142857 -0.14285714 8.57142857 -0.14285714 12 1 C11.39009109 4.55780196 10.4216319 7.6828589 9 11 C7.35 11 5.7 11 4 11 C2.68 7.37 1.36 3.74 0 0 Z " fill="#F5EBDE" transform="translate(89,121)"/>
<path d="M0 0 C0.66 0.66 1.32 1.32 2 2 C1.68546875 2.47308594 1.3709375 2.94617188 1.046875 3.43359375 C-6.89862279 15.71082377 -9.74101466 28.69309283 -12 43 C-13.65 43 -15.3 43 -17 43 C-17 41.68 -17 40.36 -17 39 C-15.68 39 -14.36 39 -13 39 C-12.90203125 38.14019531 -12.8040625 37.28039062 -12.703125 36.39453125 C-11.20719096 24.56891477 -8.9044558 8.9044558 0 0 Z " fill="#F2DCB0" transform="translate(110,77)"/>
<path d="M0 0 C2 3 2 3 3.0859375 4.98046875 C7.91010673 13.24003123 15.48777539 17.94752943 24 22 C24 22.33 24 22.66 24 23 C16.93496424 22.74308961 12.3151458 20.69733365 7 16 C2.69341751 11.03571768 0.28033474 6.58786629 0 0 Z " fill="#F5ECE1" transform="translate(100,57)"/>
<path d="M0 0 C4.29 0.99 8.58 1.98 13 3 C12.67 3.99 12.34 4.98 12 6 C11.34 6 10.68 6 10 6 C10 5.34 10 4.68 10 4 C7.03 3.67 4.06 3.34 1 3 C-5.62726237 12.9850753 -9.02113481 23.23095965 -11 35 C-12.87973203 32.2983063 -13.01426225 31.1057462 -12.56640625 27.78515625 C-9.80468497 17.54422093 -5.927557 8.89133551 0 0 Z " fill="#80392A" transform="translate(112,77)"/>
<path d="M0 0 C0.66 0.66 1.32 1.32 2 2 C1.34773438 2.78761719 0.69546875 3.57523437 0.0234375 4.38671875 C-7.49482528 13.67516975 -13.25493545 23.19622244 -16 35 C-16.33 35 -16.66 35 -17 35 C-16.35876476 21.96155006 -9.47732527 8.9381339 0 0 Z " fill="#FBF3E5" transform="translate(119,81)"/>
<path d="M0 0 C0.66 0 1.32 0 2 0 C2.33 0.99 2.66 1.98 3 3 C2.49210937 3.53367187 1.98421875 4.06734375 1.4609375 4.6171875 C-8.48520561 15.38286301 -13.79865759 26.44062643 -16 41 C-16.33 41 -16.66 41 -17 41 C-18.46047529 26.33033711 -9.82704318 13.61548836 -1.1015625 2.49609375 C0.09881869 1.17543629 0.09881869 1.17543629 0 0 Z " fill="#823D3A" transform="translate(120,81)"/>
<path d="M0 0 C0.66 0 1.32 0 2 0 C2 7.92 2 15.84 2 24 C4.64 24 7.28 24 10 24 C10 24.66 10 25.32 10 26 C6.7 26 3.4 26 0 26 C0 17.42 0 8.84 0 0 Z " fill="#6F2525" transform="translate(71,158)"/>
<path d="M0 0 C1.4540625 0.0309375 1.4540625 0.0309375 2.9375 0.0625 C2.9375 3.0325 2.9375 6.0025 2.9375 9.0625 C0.6275 9.0625 -1.6825 9.0625 -4.0625 9.0625 C-4.16015625 2.91015625 -4.16015625 2.91015625 -4.0625 1.0625 C-3.0625 0.0625 -3.0625 0.0625 0 0 Z " fill="#FDFCFC" transform="translate(112.0625,159.9375)"/>
<path d="M0 0 C0.33 0 0.66 0 1 0 C1 5.94 1 11.88 1 18 C2.65 18 4.3 18 6 18 C6.33 14.37 6.66 10.74 7 7 C7.33 7 7.66 7 8 7 C8.14285714 15.57142857 8.14285714 15.57142857 7 19 C7.99 19 8.98 19 10 19 C10.33 18.01 10.66 17.02 11 16 C11 17.98 11 19.96 11 22 C9.58318366 21.68817931 8.16655349 21.37551263 6.75 21.0625 C5.96109375 20.88847656 5.1721875 20.71445313 4.359375 20.53515625 C2.23121297 20.052444 0.11467158 19.53836822 -2 19 C-1.34 18.67 -0.68 18.34 0 18 C0 12.06 0 6.12 0 0 Z " fill="#732926" transform="translate(92,102)"/>
<path d="M0 0 C0.33 0 0.66 0 1 0 C1.00410889 0.55461914 1.00821777 1.10923828 1.01245117 1.68066406 C1.04544181 4.204844 1.11608378 6.72662696 1.1875 9.25 C1.19330078 10.12269531 1.19910156 10.99539062 1.20507812 11.89453125 C1.33387997 17.33752768 1.33387997 17.33752768 4.55078125 21.609375 C5.35902344 22.06828125 6.16726562 22.5271875 7 23 C4.125 23.125 4.125 23.125 1 23 C-1 21 -1 21 -1.24291992 18.95288086 C-1.23881104 18.13182861 -1.23470215 17.31077637 -1.23046875 16.46484375 C-1.22853516 15.57345703 -1.22660156 14.68207031 -1.22460938 13.76367188 C-1.21236328 12.83103516 -1.20011719 11.89839844 -1.1875 10.9375 C-1.18685547 10.00099609 -1.18621094 9.06449219 -1.18554688 8.09960938 C-1.14019224 1.14019224 -1.14019224 1.14019224 0 0 Z " fill="#712727" transform="translate(147,161)"/>
<path d="M0 0 C2.98479194 4.47718792 4 8.63824093 4 14 C2.02 14 0.04 14 -2 14 C-1.03644647 4.58997722 -1.03644647 4.58997722 0 0 Z " fill="#ECE3E3" transform="translate(56,162)"/>
<path d="M0 0 C0.33 0 0.66 0 1 0 C1.33 5.61 1.66 11.22 2 17 C2.66 17.33 3.32 17.66 4 18 C4 13.71 4 9.42 4 5 C4.33 5 4.66 5 5 5 C5.05384521 7.29141286 5.09272087 9.58318188 5.125 11.875 C5.14820312 13.15117188 5.17140625 14.42734375 5.1953125 15.7421875 C4.95212477 19.79855877 3.76760057 20.23239943 1 23 C-1.66815719 15.30942929 -0.76557692 7.94544692 0 0 Z " fill="#9B5C44" transform="translate(87,101)"/>
<path d="M0 0 C0.99 0.33 1.98 0.66 3 1 C2.21625 1.721875 1.4325 2.44375 0.625 3.1875 C-4.35822491 8.52666954 -4.48202197 13.98003462 -5 21 C-5.33 21 -5.66 21 -6 21 C-6 17.04 -6 13.08 -6 9 C-7.32 10.32 -8.64 11.64 -10 13 C-10.66 12.67 -11.32 12.34 -12 12 C-8.04 8.04 -4.08 4.08 0 0 Z " fill="#742928" transform="translate(123,25)"/>
<path d="M0 0 C-0.66 1.98 -1.32 3.96 -2 6 C-3.65 6 -5.3 6 -7 6 C-7.66 4.02 -8.32 2.04 -9 0 C-5.52176885 -1.15941038 -3.54104422 -0.70820884 0 0 Z " fill="#F6D17B" transform="translate(100,122)"/>
<path d="M0 0 C2.65373701 1.0849792 4.62607362 2.34857295 7 4 C6.34 4.66 5.68 5.32 5 6 C4.278125 5.505 3.55625 5.01 2.8125 4.5 C-2.30962497 1.85832296 -8.41057643 2.77609134 -14 3 C-9.57726112 -0.83304036 -5.64384863 -0.82108058 0 0 Z " fill="#863E3C" transform="translate(138,22)"/>
<path d="M0 0 C1.670625 0.061875 1.670625 0.061875 3.375 0.125 C1.375 3.125 1.375 3.125 -2.625 4.125 C-2.955 10.395 -3.285 16.665 -3.625 23.125 C-3.955 23.125 -4.285 23.125 -4.625 23.125 C-4.79268291 20.18755476 -4.95918858 17.25005096 -5.125 14.3125 C-5.19654297 13.06243164 -5.19654297 13.06243164 -5.26953125 11.78710938 C-5.31464844 10.98466797 -5.35976562 10.18222656 -5.40625 9.35546875 C-5.44814453 8.61707764 -5.49003906 7.87868652 -5.53320312 7.11791992 C-5.60979533 5.45509506 -5.625 3.7895879 -5.625 2.125 C-3.625 0.125 -3.625 0.125 0 0 Z " fill="#996464" transform="translate(152.625,156.875)"/>
<path d="M0 0 C0.91504754 3.01146244 1.02440192 5.32324447 0.625 8.4375 C0.52574219 9.21867187 0.42648438 9.99984375 0.32421875 10.8046875 C-0.0330779 13.22397324 -0.46129279 15.61429665 -1 18 C-1.99 18 -2.98 18 -4 18 C-3.48914188 11.56318772 -2.27057103 6.04057576 0 0 Z " fill="#F4C95E" transform="translate(103,103)"/>
<path d="M0 0 C6.34507042 -0.35915493 6.34507042 -0.35915493 8.9375 1.0625 C10.55479605 4.01168691 10.18630138 6.70867559 10 10 C9.34 10 8.68 10 8 10 C7.67 8.02 7.34 6.04 7 4 C4.69 4 2.38 4 0 4 C0 2.68 0 1.36 0 0 Z " fill="#7F3D3D" transform="translate(88,157)"/>
<path d="M0 0 C1.65 0 3.3 0 5 0 C5.33 1.65 5.66 3.3 6 5 C5.34 5 4.68 5 4 5 C3.34 6.32 2.68 7.64 2 9 C1.01 8.67 0.02 8.34 -1 8 C-0.67 5.36 -0.34 2.72 0 0 Z " fill="#7E3B3B" transform="translate(54,158)"/>
<path d="M0 0 C1.27944591 3.83833773 0.44683621 4.70159232 -1.3125 8.25 C-3.33560774 12.48166702 -4.88812627 16.45142564 -6 21 C-6.33 21 -6.66 21 -7 21 C-6.65630351 14.01150474 -5.19793515 5.19793515 0 0 Z " fill="#F3E1BD" transform="translate(109,95)"/>
<path d="M0 0 C0.66 0.66 1.32 1.32 2 2 C1.68546875 2.4846875 1.3709375 2.969375 1.046875 3.46875 C-1.96505642 8.18623295 -4.56925485 12.9584545 -7 18 C-8 15 -8 15 -6.6015625 11.6796875 C-5.95287044 10.40623054 -5.29356847 9.13813508 -4.625 7.875 C-4.13 6.90626953 -4.13 6.90626953 -3.625 5.91796875 C-1.18313718 1.18313718 -1.18313718 1.18313718 0 0 Z " fill="#F5E6CB" transform="translate(110,77)"/>
<path d="M0 0 C2.24353987 2.24353987 2.80167078 3.85419177 3.875 6.8125 C5.40907431 10.79763289 7.05237582 13.84183123 10 17 C6.42521604 15.55767936 4.88918552 13.83879097 2.8125 10.625 C2.30332031 9.85414062 1.79414062 9.08328125 1.26953125 8.2890625 C0.07040732 6.12694981 -0.65221615 4.43967778 -1 2 C-0.67 1.34 -0.34 0.68 0 0 Z " fill="#CD8612" transform="translate(101,54)"/>
<path d="M0 0 C0.99 0 1.98 0 3 0 C3.21917317 2.70313576 3.32851983 4.43958382 1.9375 6.8125 C-0.99268751 8.60842137 -3.6472953 8.18977574 -7 8 C-6.34 7.01 -5.68 6.02 -5 5 C-2.375 4.8125 -2.375 4.8125 0 5 C0 3.35 0 1.7 0 0 Z " fill="#874848" transform="translate(115,177)"/>
<path d="M0 0 C0.66 0 1.32 0 2 0 C2.33 0.99 2.66 1.98 3 3 C1.73034469 4.43854058 0.45922782 5.87579127 -0.8125 7.3125 C-1.52019531 8.11300781 -2.22789063 8.91351563 -2.95703125 9.73828125 C-4.59337122 11.54983162 -6.25272168 13.29681703 -8 15 C-8 11.01558953 -6.54564147 9.93835166 -4 6.9375 C-1.00725261 3.86279868 -1.00725261 3.86279868 0 0 Z " fill="#905148" transform="translate(120,81)"/>
<path d="M0 0 C0.66 0.66 1.32 1.32 2 2 C1.7578125 5.2578125 1.7578125 5.2578125 1.125 9.125 C0.92132813 10.40632813 0.71765625 11.68765625 0.5078125 13.0078125 C0.34023437 13.99523437 0.17265625 14.98265625 0 16 C-2.38825352 12.35570204 -1.94295451 9.9306564 -1.125 5.75 C-0.92132813 4.67234375 -0.71765625 3.5946875 -0.5078125 2.484375 C-0.34023437 1.66453125 -0.17265625 0.8446875 0 0 Z " fill="#914C33" transform="translate(89,77)"/>
<path d="M0 0 C0.33 0 0.66 0 1 0 C0.5317879 4.77576339 -0.24331998 8.04476345 -3 12 C-3.99 11.67 -4.98 11.34 -6 11 C-5.47599609 10.18595703 -5.47599609 10.18595703 -4.94140625 9.35546875 C-4.25884766 8.28232422 -4.25884766 8.28232422 -3.5625 7.1875 C-3.11003906 6.47980469 -2.65757812 5.77210937 -2.19140625 5.04296875 C-0.85913661 2.91865448 -0.85913661 2.91865448 0 0 Z " fill="#F8E2DE" transform="translate(153,51)"/>
<path d="M0 0 C0.66 0 1.32 0 2 0 C1.67 2.31 1.34 4.62 1 7 C-0.98 7 -2.96 7 -5 7 C-4.360625 6.5875 -3.72125 6.175 -3.0625 5.75 C-0.79009069 3.82189513 -0.39803561 2.88575819 0 0 Z " fill="#732B2B" transform="translate(96,177)"/>
<path d="M0 0 C1.134375 0.020625 2.26875 0.04125 3.4375 0.0625 C0.61196016 4.30080976 -1.68430888 4.03965348 -6.5625 5.0625 C-4.14811644 0.07277397 -4.14811644 0.07277397 0 0 Z " fill="#8F5555" transform="translate(111.5625,156.9375)"/>
<path d="M0 0 C1.94268841 2.91403262 3.46395304 5.85808576 5 9 C4.34 9.66 3.68 10.32 3 11 C0.84694043 7.14243493 -0.39253254 4.44870215 0 0 Z " fill="#EEDBC2" transform="translate(100,57)"/>
<path d="M0 0 C0.66 0.66 1.32 1.32 2 2 C0.7260411 4.03833424 -0.61061923 6.03852126 -2 8 C-2.66 8 -3.32 8 -4 8 C-2.25 2.25 -2.25 2.25 0 0 Z " fill="#F8EEDC" transform="translate(110,77)"/>
</svg>
